<?xml version="1.0" standalone="no"?>
<!DOCTYPE svg PUBLIC "-//W3C//DTD SVG 1.1//EN" "http://www.w3.org/Graphics/SVG/1.1/DTD/svg11.dtd" >
<svg xmlns="http://www.w3.org/2000/svg">
<metadata>Generated by IcoMoon</metadata>
<defs>
<font id="ZPicon" horiz-adv-x="1024">
<font-face units-per-em="1024" ascent="960" descent="-64" />
<missing-glyph horiz-adv-x="1024" />
<glyph unicode="&#x20;" horiz-adv-x="512" d="" />
<glyph unicode="&#xe900;" glyph-name="SpeakVoice" d="M256 266.667c-76.576-0.026-138.647-62.097-138.667-138.675-0.005-17.673-14.335-31.996-32.008-31.991s-31.997 14.336-31.992 32.009c0.029 111.915 90.745 202.628 202.659 202.658h170.675c111.915-0.030 202.637-90.743 202.667-202.658 0.004-17.673-14.319-32.004-31.991-32.009s-32.004 14.319-32.009 31.991c-0.021 76.578-62.089 138.65-138.667 138.675zM426.667 266.667h-170.667zM336.235 682.792c-58.942 0-106.724-47.782-106.724-106.724s47.782-106.726 106.724-106.726c58.942 0 106.726 47.783 106.726 106.726s-47.784 106.724-106.726 106.724zM165.51 576.068c0 94.288 76.436 170.724 170.724 170.724s170.726-76.436 170.726-170.724c0-94.288-76.437-170.726-170.726-170.726s-170.724 76.437-170.724 170.726zM919.019 832.896c-12.275 12.713-32.533 13.067-45.248 0.79s-13.065-32.535-0.789-45.248c101.803-105.421 101.803-276.788 0-382.208-12.275-12.715-11.925-32.973 0.789-45.248s32.973-11.925 45.248 0.789c125.751 130.223 125.751 340.904 0 471.125zM732.399 748.086c12.497 12.497 32.759 12.497 45.257 0 87.104-87.109 87.104-228.339 0-315.446-12.497-12.497-32.759-12.497-45.257 0s-12.497 32.755 0 45.252c62.114 62.116 62.114 162.824 0 224.939-12.497 12.497-12.497 32.758 0 45.255zM605.5 680.513c12.493 12.497 32.755 12.497 45.252 0 49.805-49.803 49.805-130.548 0-180.353-12.497-12.497-32.759-12.497-45.252 0-12.497 12.498-12.497 32.759-0.004 45.257 24.811 24.809 24.811 65.033 0 89.841-12.493 12.497-12.493 32.758 0.004 45.255z" />
<glyph unicode="&#xe901;" glyph-name="ArrowLeftFill" d="M512 842.667c229.769 0 416-186.231 416-416s-186.231-416-416-416c-229.769 0-416 186.231-416 416s186.231 416 416 416zM491.959 532.040c12.497 12.497 12.497 32.758 0 45.255s-32.755 12.497-45.252 0l-128.343-128.347c-5.59-5.76-9.031-13.619-9.031-22.281 0-8.845 3.587-16.849 9.385-22.639l127.988-127.987c12.497-12.497 32.755-12.497 45.252 0s12.497 32.755 0 45.252l-73.371 73.374h264.079c17.673 0 32 14.327 32 32s-14.327 32-32 32h-264.079l73.371 73.373z" />
<glyph unicode="&#xe902;" glyph-name="CalendarScheduleLeft" d="M491.524 470.639c12.493-12.497 12.493-32.759 0-45.257l-30.737-30.737h179.268c17.673 0 32-14.327 32-32s-14.327-32-32-32h-179.277l30.746-30.746c12.493-12.497 12.493-32.759 0-45.257-12.497-12.493-32.759-12.493-45.257 0l-85.369 85.372c-12.497 12.497-12.497 32.755 0 45.252l85.369 85.372c12.497 12.497 32.759 12.497 45.257 0zM319.922 842.834c17.673 0 32-14.327 32-32v-32.032h320.163v32.032c0 17.673 14.323 32 32 32 17.673 0 32-14.327 32-32v-32.032h32.077c88.367 0 160-71.634 160-160v-448.293c0-88.367-71.633-160-160-160h-512.318c-88.366 0-160 71.633-160 160v448.293c0 88.366 71.634 160 160 160h32.078v32.032c0 17.673 14.327 32 32 32zM287.922 714.802h-32.078c-53.019 0-96-42.981-96-96v-448.293c0-53.018 42.981-96 96-96h512.318c53.022 0 96 42.982 96 96v448.293c0 53.019-42.978 96-96 96h-32.077v-32.022c0-17.673-14.327-32-32-32-17.677 0-32 14.327-32 32v32.022h-320.163v-32.022c0-17.673-14.327-32-32-32s-32 14.327-32 32v32.022z" />
<glyph unicode="&#xe903;" glyph-name="SupportFill" d="M810.667 213.334h-42.667c-23.552 0-42.667 19.115-42.667 42.667v213.333c0 23.552 19.115 42.667 42.667 42.667h42.667c47.147 0 85.333-38.187 85.333-85.333v-128c0-47.147-38.187-85.333-85.333-85.333zM768 480c-5.879 0-10.667-4.787-10.667-10.667v-213.333c0-5.879 4.787-10.667 10.667-10.667h42.667c29.474 0 53.333 23.859 53.333 53.333v128c0 29.474-23.859 53.333-53.333 53.333h-42.667zM693.333 469.334c0 41.225 33.442 74.667 74.667 74.667h42.667c64.819 0 117.333-52.514 117.333-117.333v-128c0-64.819-52.514-117.333-117.333-117.333h-42.667c-41.225 0-74.667 33.442-74.667 74.667v213.333zM256 213.334h-42.667c-47.147 0-85.333 38.187-85.333 85.333v128c0 47.147 38.187 85.333 85.333 85.333h42.667c23.552 0 42.667-19.115 42.667-42.667v-213.333c0-23.552-19.115-42.667-42.667-42.667zM213.333 480c-29.474 0-53.333-23.859-53.333-53.333v-128c0-29.474 23.86-53.333 53.333-53.333h42.667c5.879 0 10.667 4.787 10.667 10.667v213.333c0 5.879-4.788 10.667-10.667 10.667h-42.667zM96 426.667c0 64.819 52.514 117.333 117.333 117.333h42.667c41.225 0 74.667-33.442 74.667-74.667v-213.333c0-41.225-33.442-74.667-74.667-74.667h-42.667c-64.82 0-117.333 52.514-117.333 117.333v128zM202.667 533.334c0 170.846 138.487 309.333 309.333 309.333s309.333-138.487 309.333-309.333v-21.333c0-17.673-14.327-32-32-32s-32 14.327-32 32v21.333c0 135.5-109.833 245.333-245.333 245.333s-245.333-109.833-245.333-245.333v-21.333c0-17.673-14.327-32-32-32s-32 14.327-32 32v21.333zM538.667 32h-53.333c-29.44 0-53.333 23.893-53.333 53.333s23.893 53.333 53.333 53.333h53.333c29.44 0 53.333-23.893 53.333-53.333s-23.893-53.333-53.333-53.333zM485.333 106.667c-11.767 0-21.333-9.566-21.333-21.333s9.566-21.333 21.333-21.333h53.333c11.767 0 21.333 9.566 21.333 21.333s-9.566 21.333-21.333 21.333h-53.333zM400 85.334c0 47.113 38.221 85.333 85.333 85.333h53.333c47.113 0 85.333-38.221 85.333-85.333s-38.221-85.333-85.333-85.333h-53.333c-47.113 0-85.333 38.221-85.333 85.333zM768 245.334c17.673 0 32-14.327 32-32v-42.667c0-64.819-52.514-117.333-117.333-117.333h-90.667c-17.673 0-32 14.327-32 32s14.327 32 32 32h90.667c29.474 0 53.333 23.859 53.333 53.333v42.667c0 17.673 14.327 32 32 32z" />
<glyph unicode="&#xe904;" glyph-name="ArrowTopRight" d="M745.83 660.494c12.497-12.497 12.497-32.758 0-45.255l-422.401-422.399c-12.497-12.497-32.758-12.497-45.255 0s-12.497 32.755 0 45.252l422.399 422.401c12.497 12.497 32.759 12.497 45.257 0zM394.67 640.226c0.125 17.673 14.552 31.898 32.223 31.773l296.533-2.091c17.498-0.123 31.65-14.274 31.774-31.769l2.133-296.576c0.128-17.673-14.093-32.102-31.765-32.23s-32.102 14.097-32.23 31.77l-1.907 265.030-264.987 1.868c-17.673 0.125-31.898 14.552-31.773 32.225z" />
<glyph unicode="&#xe905;" glyph-name="BackCurved" d="M864 512c0-53.751-21.35-105.301-59.358-143.309s-89.557-59.358-143.309-59.358h-392.106l114.773-116.053c4.214-2.398 7.829-5.717 10.571-9.715s4.541-8.567 5.259-13.359c0.719-4.796 0.338-9.69-1.111-14.315s-3.932-8.862-7.258-12.39c-3.327-3.524-7.411-6.246-11.944-7.966-4.533-1.715-9.398-2.381-14.225-1.941s-9.493 1.967-13.643 4.471-7.677 5.922-10.314 9.988l-170.667 170.667c-5.993 5.999-9.359 14.131-9.359 22.613s3.366 16.614 9.359 22.613l170.667 170.667c2.637 4.067 6.164 7.483 10.314 9.988s8.815 4.034 13.643 4.472c4.828 0.439 9.692-0.226 14.225-1.943s8.617-4.441 11.944-7.967c3.327-3.526 5.809-7.762 7.258-12.387s1.83-9.521 1.111-14.315c-0.719-4.792-2.517-9.362-5.259-13.36s-6.357-7.317-10.571-9.715l-114.773-116.053h392.106c36.779 0 72.047 14.609 98.052 40.614s40.614 61.274 40.614 98.052c0 36.777-14.609 72.047-40.614 98.052s-61.274 40.614-98.052 40.614h-85.333c-8.486 0-16.627 3.372-22.626 9.373-6.003 6.001-9.374 14.141-9.374 22.627s3.371 16.626 9.374 22.627c5.999 6.001 14.14 9.373 22.626 9.373h85.333c53.751 0 105.301-21.353 143.309-59.36s59.358-89.556 59.358-143.307z" />
<glyph unicode="&#xe906;" glyph-name="BusinessChart" d="M625.493 488.534h234.667c21.76 0 42.667 9.387 57.173 26.029 14.080 16.213 20.48 37.973 17.067 58.88-22.613 153.173-145.493 275.627-298.24 298.667-21.333 2.987-42.667-2.987-58.88-17.067-16.64-14.507-26.027-34.987-26.027-57.173v-234.667c0-40.96 33.707-74.669 74.667-74.669h-0.427zM614.827 797.869c0 4.693 2.56 7.68 3.84 8.533 1.28 1.28 3.413 2.56 6.4 2.56h1.28c125.013-18.773 225.707-119.467 244.48-244.48 0.427-3.413-0.853-5.973-2.56-7.68-0.853-1.28-3.84-3.84-8.533-3.84h-234.667c-5.973 0-10.667 4.693-10.667 10.667v234.24h0.427zM860.16 413.867h-174.507c-30.293 0-57.6-17.92-69.12-46.080s-5.12-59.733 16.213-81.493l123.307-123.307c14.080-14.080 33.28-21.76 53.333-21.76h5.547c21.333 1.707 40.96 12.373 53.76 29.44 34.56 46.507 57.173 101.12 65.707 157.867 3.413 21.333-2.987 42.667-17.067 58.88-14.507 16.64-34.987 26.027-57.173 26.027v0.427zM817.493 208.64c-2.133-2.56-5.12-3.413-6.827-3.413s-5.547 0-8.96 3.413l-123.307 123.307c-4.267 4.267-3.413 8.533-2.133 11.52 0.853 2.56 3.84 6.4 9.813 6.4h174.507c4.693 0 7.68-2.987 8.533-3.84 1.28-1.707 2.987-4.267 2.56-7.68-7.253-46.507-25.6-91.307-53.76-129.28l-0.427-0.427zM479.147 345.6s-2.987 4.693-2.987 7.68v259.842c0 21.76-9.387 42.667-26.027 57.173-16.213 14.080-37.973 20.053-58.453 17.067-95.147-14.080-181.76-67.413-237.653-146.773-56.747-79.789-77.227-177.922-58.453-276.055 27.307-139.52 139.52-251.307 279.040-277.76 23.467-4.267 46.933-6.827 69.973-6.827 75.947 0 148.907 23.893 210.773 69.547 17.067 12.8 27.733 32.427 29.44 53.76 1.707 21.76-6.4 43.52-21.76 58.88l-183.467 183.467h-0.427zM616.96 100.694c-66.133-48.64-147.627-66.987-230.827-51.627-114.347 21.76-206.080 113.067-228.267 227.413-15.787 80.64 1.28 161.28 47.787 226.987 45.653 64.855 116.907 108.802 194.987 120.322 3.413 0.853 5.973-0.853 7.253-2.133 1.28-0.853 3.84-3.84 3.84-8.533v-259.842c0-20.053 7.68-38.827 21.76-52.907l183.467-183.467c3.413-3.413 3.413-7.253 3.413-8.96 0-2.133-0.853-5.12-3.84-7.253h0.427z" />
<glyph unicode="&#xe907;" glyph-name="PinDots" d="M769.28 736.214c-68.693 68.693-160 106.667-257.28 106.667s-188.16-37.973-256.853-106.667c-68.693-68.693-106.667-160-106.667-256.853s37.973-188.587 106.667-257.28l179.2-179.2c21.333-21.333 49.493-32 78.080-32s56.32 10.667 78.080 32l179.2 179.2c141.653 141.653 141.653 372.48 0 514.133h-0.427zM724.053 267.307l-179.2-179.2c-17.92-17.92-47.36-17.92-65.28 0l-179.2 179.2c-56.747 56.747-87.893 131.84-87.893 212.053s31.147 155.307 87.893 212.053c56.747 56.747 131.84 87.893 212.053 87.893s155.307-31.146 212.053-87.893c116.907-116.907 116.907-306.773 0-423.68l-0.427-0.427zM546.987 469.547c0-8.107-3.84-18.347-9.813-24.32s-15.787-10.667-24.747-10.667h-0.427c-12.8 0-27.307 9.387-32 21.333-5.12 11.947-1.707 29.013 7.253 37.973 8.96 9.387 26.453 12.8 38.4 7.68s21.333-19.2 21.333-32zM392.96 494.294c8.96-8.96 12.373-26.027 7.68-37.973-5.12-11.947-19.2-21.333-32.427-21.333-8.107 0-17.92 3.84-23.893 9.387-6.4 5.973-11.093 16.64-11.093 25.6 0 12.8 9.387 27.307 21.333 32 11.947 5.12 29.013 1.707 38.4-7.68zM690.773 469.547c0-8.107-3.84-18.347-9.813-24.32s-16.213-10.667-24.747-10.667h-0.427c-12.8 0-27.307 9.387-32 21.333-5.12 11.947-1.707 29.44 7.68 38.4 8.96 8.96 26.027 12.373 37.547 7.253 11.947-4.693 21.76-19.2 21.76-32.427v0.427z" />
<glyph unicode="&#xe908;" glyph-name="Switches" d="M288 480h448c99.84 0 181.333 81.493 181.333 181.333s-81.493 181.333-181.333 181.333h-448c-99.84 0-181.333-81.493-181.333-181.333s81.493-181.333 181.333-181.333zM288 778.667h448c64.853 0 117.333-52.48 117.333-117.333s-52.48-117.333-117.333-117.333h-448c-64.853 0-117.333 52.48-117.333 117.333s52.48 117.333 117.333 117.333zM736 373.334h-448c-99.84 0-181.333-81.493-181.333-181.333s81.493-181.333 181.333-181.333h448c99.84 0 181.333 81.493 181.333 181.333s-81.493 181.333-181.333 181.333zM736 74.667h-448c-64.853 0-117.333 52.48-117.333 117.333s52.48 117.333 117.333 117.333h448c64.853 0 117.333-52.48 117.333-117.333s-52.48-117.333-117.333-117.333zM789.333 192c0-29.44-23.893-53.333-53.333-53.333s-53.333 23.893-53.333 53.333c0 14.080 5.547 27.307 15.36 37.547 10.24 10.24 23.467 15.787 37.973 15.787 29.44 0 53.333-23.893 53.333-53.333zM234.667 661.334c0 14.080 5.547 27.307 15.36 37.547 10.24 10.24 23.467 15.787 37.973 15.787 29.44 0 53.333-23.893 53.333-53.333s-23.893-53.333-53.333-53.333-53.333 23.893-53.333 53.333z" />
<glyph unicode="&#xe909;" glyph-name="DocumentText" d="M768.213 842.88h-512.427c-88.32 0-160-71.68-160-160v-512.427c0-88.32 71.68-160 160-160h512.427c88.32 0 160 71.68 160 160v512.427c0 88.32-71.68 160-160 160zM864.213 170.454c0-52.907-43.093-96-96-96h-512.427c-52.907 0-96 43.093-96 96v512.427c0 52.907 43.093 96 96 96h512.427c52.907 0 96-43.093 96-96v-512.427zM319.787 458.88h106.667c29.44 0 53.333 23.893 53.333 53.333v106.667c0 29.44-23.893 53.333-53.333 53.333h-106.667c-29.44 0-53.333-23.893-53.333-53.333v-106.667c0-29.44 23.893-53.333 53.333-53.333zM330.453 608.214h85.333v-85.333h-85.333v85.333zM757.12 640.214c0-17.493-14.507-32-32-32h-149.333c-17.493 0-32 14.507-32 32s14.507 32 32 32h149.333c17.493 0 32-14.507 32-32zM757.12 490.88c0-17.493-14.507-32-32-32h-149.333c-17.493 0-32 14.507-32 32s14.507 32 32 32h149.333c17.493 0 32-14.507 32-32zM757.12 362.88c0-17.493-14.507-32-32-32h-426.667c-17.493 0-32 14.507-32 32s14.507 32 32 32h427.093c17.493 0 32-14.507 32-32h-0.427zM757.12 213.547c0-17.493-14.507-32-32-32h-426.667c-17.493 0-32 14.507-32 32s14.507 32 32 32h427.093c17.493 0 32-14.507 32-32h-0.427z" />
<glyph unicode="&#xe90a;" glyph-name="WarningOutline" d="M512 842.667c-229.547 0-416-186.453-416-416s186.453-416 416-416 416 186.453 416 416-186.453 416-416 416zM512 74.667c-194.133 0-352 157.867-352 352s157.867 352 352 352 352-157.867 352-352-157.867-352-352-352zM480 405.334v213.333c0 17.493 14.507 32 32 32s32-14.507 32-32v-213.333c0-17.493-14.507-32-32-32s-32 14.507-32 32zM554.667 245.334c0-23.467-19.2-42.667-42.667-42.667s-42.667 19.2-42.667 42.667c0 11.093 4.267 21.76 12.373 30.293 8.107 8.107 18.773 12.373 30.293 12.373 23.467 0 42.667-19.2 42.667-42.667z" />
<glyph unicode="&#xe90b;" glyph-name="Warning" d="M501.333 853.761c-229.547 0-416-186.453-416-416s186.453-416 416-416 416 186.453 416 416c0 229.547-186.453 416-416 416zM469.333 629.761c0 17.493 14.507 32 32 32s32-14.507 32-32v-213.334c0-17.493-14.507-32-32-32s-32 14.507-32 32v213.334zM501.333 213.76c-23.467 0-42.667 19.2-42.667 42.667 0 11.093 4.267 21.76 12.373 30.293 8.107 8.107 18.773 12.373 30.293 12.373 23.467 0 42.667-19.2 42.667-42.667s-19.2-42.667-42.667-42.667z" />
<glyph unicode="&#xe90c;" glyph-name="Star" d="M512 842.995c-36.467 0-69.786-20.657-86.004-53.315l-83.598-166.765-185.238-26.479c-36.452-5.126-66.767-30.641-78.040-65.686s-1.519-73.448 25.107-98.865l0.035-0.034 133.012-127.467-31.593-181.082c-6.377-36.019 8.268-72.538 37.772-94.174 29.493-21.628 68.709-24.623 101.142-7.731l0.078 0.043 167.322 86.426 167.398-86.507c32.435-16.896 71.659-13.905 101.154 7.727 29.5 21.632 44.147 58.15 37.773 94.17l-0.013 0.055-31.582 181.073 133.069 127.522c26.611 25.417 36.356 63.808 25.088 98.843-11.273 35.044-41.587 60.558-78.037 65.686l-0.051 0.007-185.19 26.473-83.601 166.77c-16.222 32.655-49.536 53.31-86.003 53.31z" />
<glyph unicode="&#xe90d;" glyph-name="Terminal" d="M148.054 768c0 8.487 3.372 16.626 9.373 22.627s14.141 9.373 22.627 9.373h645.546c8.486 0 16.627-3.372 22.626-9.373 6.003-6.001 9.374-14.141 9.374-22.627s-3.371-16.626-9.374-22.627c-5.999-6.001-14.14-9.373-22.626-9.373h-645.546c-8.487 0-16.626 3.372-22.627 9.373s-9.373 14.141-9.373 22.627zM875.947 352v-266.667c0-8.657-3.439-16.96-9.562-23.078-6.118-6.123-14.421-9.562-23.078-9.562s-16.96 3.439-23.078 9.562c-6.123 6.118-9.562 14.421-9.562 23.078v263.253h-213.333v-226.56c-0.111-18.257-7.445-35.729-20.395-48.602-12.949-12.868-30.468-20.092-48.725-20.092h-311.466c-18.219 0-35.691 7.236-48.573 20.122-12.883 12.881-20.12 30.353-20.12 48.572v229.973c-15.989 5.47-29.419 16.61-37.752 31.313-8.334 14.699-10.993 31.945-7.474 48.474l39.68 184.747c3.325 15.39 11.836 29.171 24.108 39.035s27.561 15.214 43.305 15.152h604.16c15.744 0.062 31.036-5.287 43.307-15.152s20.783-23.645 24.107-39.035l39.68-184.747c3.52-16.529 0.858-33.775-7.475-48.474-8.333-14.703-21.764-25.843-37.751-31.313zM534.613 348.587h-321.28v-226.56c0-1.246 0.495-2.441 1.375-3.319s2.074-1.374 3.319-1.374h313.6c0.653-0.060 1.31 0.017 1.929 0.226s1.186 0.546 1.668 0.99c0.482 0.439 0.866 0.977 1.131 1.579 0.26 0.597 0.397 1.246 0.393 1.899l-2.133 226.56zM857.6 418.56l-38.4 184.32c-0.209 1.169-0.853 2.215-1.805 2.928-0.947 0.713-2.133 1.039-3.315 0.912h-604.16c-1.181 0.127-2.366-0.199-3.316-0.912s-1.595-1.759-1.804-2.928l-39.253-184.32c-0.203-0.713-0.234-1.463-0.090-2.189 0.143-0.73 0.457-1.412 0.914-1.993 0.458-0.585 1.047-1.050 1.72-1.361s1.409-0.461 2.15-0.431h683.093c0.777-0.102 1.562-0.009 2.291 0.269 0.734 0.277 1.382 0.738 1.89 1.331s0.858 1.301 1.024 2.065c0.162 0.764 0.137 1.557-0.085 2.308h-0.853z" />
<glyph unicode="&#xe90e;" glyph-name="Product" d="M896 842.667h-768c-19.803 0-38.795-7.866-52.797-21.869s-21.869-32.995-21.869-52.797v-85.333c0-19.803 7.866-38.795 21.869-52.797s32.995-21.869 52.797-21.869h768c19.802 0 38.793 7.866 52.796 21.869s21.871 32.995 21.871 52.797v85.333c0 19.803-7.868 38.795-21.871 52.797s-32.994 21.869-52.796 21.869zM906.667 682.667c0-2.829-1.122-5.542-3.123-7.543s-4.715-3.124-7.543-3.124h-768c-2.829 0-5.542 1.124-7.543 3.124s-3.124 4.714-3.124 7.543v85.333c0 2.829 1.124 5.542 3.124 7.543s4.714 3.124 7.543 3.124h768c2.829 0 5.542-1.124 7.543-3.124s3.123-4.714 3.123-7.543v-85.333zM384 437.334c-8.487 0-16.626 3.371-22.627 9.374-6.001 5.999-9.373 14.14-9.373 22.626s3.372 16.627 9.373 22.626c6.001 6.003 14.141 9.374 22.627 9.374h256c8.486 0 16.627-3.371 22.626-9.374 6.003-5.999 9.374-14.14 9.374-22.626s-3.371-16.627-9.374-22.626c-5.999-6.003-14.14-9.374-22.626-9.374h-256zM832 608h64v-480c0-31.117-12.361-60.962-34.368-82.965-22.003-22.007-51.849-34.368-82.965-34.368h-532.907c-15.444-0.055-30.748 2.935-45.033 8.811-14.285 5.871-27.27 14.502-38.211 25.404s-19.622 23.855-25.545 38.118c-5.923 14.263-8.972 29.555-8.972 45.001v480h64v-480c0-14.144 5.619-27.712 15.621-37.713s23.567-15.62 37.712-15.62h533.333c14.144 0 27.712 5.619 37.713 15.62s15.62 23.569 15.62 37.713v480z" />
<glyph unicode="&#xe90f;" glyph-name="Premium" d="M512 896c-259.153 0-469.333-210.18-469.333-469.333s210.18-469.333 469.333-469.333c259.153 0 469.333 210.18 469.333 469.333s-210.18 469.333-469.333 469.333zM722.18 422.993s-1.634-2.039-2.449-2.854c-2.039-1.634-4.489-2.859-7.347-3.674-18.773-4.489-37.547-8.981-56.32-13.47-6.123-1.63-12.241-2.854-18.364-4.079-11.021-2.449-22.037-4.898-32.649-8.162-26.53-7.347-41.63-25.306-47.753-49.792-1.225-4.079-1.63-8.162-2.449-12.651-0.405-2.449-0.815-4.898-1.22-7.347-1.225-6.938-2.859-13.875-4.493-21.222-1.63-7.753-3.264-15.915-4.894-23.671-1.225-5.303-2.044-10.611-3.268-15.915-1.225-5.713-2.039-11.426-3.264-17.139-1.634-8.572-3.264-16.734-5.303-25.306-1.225-6.528-2.859-13.466-4.083-19.998-1.634-7.753-3.264-15.509-4.489-23.262-1.225-6.938-2.859-13.875-4.083-20.813-0.815-4.898-4.489-8.981-9.387-8.981-1.63 0.819-3.264 2.044-4.489 3.674-1.225 1.634-2.039 3.674-2.449 6.123l-3.674 17.139c-0.405 2.859-1.225 5.308-1.63 8.162-1.634 7.347-2.859 14.694-4.489 22.447-1.634 7.347-2.859 14.694-4.493 22.447-1.22 6.938-2.854 13.47-4.079 20.407-1.225 5.303-2.039 11.017-3.264 16.324-0.819 4.079-1.634 8.572-2.449 12.651-1.225 6.532-2.449 13.060-3.674 19.588-1.225 5.308-2.039 10.206-3.264 15.509-2.044 9.387-4.083 18.368-5.713 27.755-2.449 15.915-11.021 30.605-23.671 41.216-11.426 9.796-25.304 13.47-39.996 16.734-12.652 2.859-25.303 5.713-37.955 8.572-13.060 2.854-26.119 6.123-39.179 9.387-1.224 0-2.041 0.405-3.265 0.815-4.897 1.225-10.203 2.449-15.1 4.083-5.306 1.63-7.346 4.894-7.346 9.387 0 4.079 2.857 7.343 7.754 8.977 0.816 0 2.041 0.41 2.857 0.815l19.181 4.489c6.122 1.634 11.835 2.859 17.957 4.493 9.795 2.449 19.59 4.894 29.385 6.938 4.489 1.225 8.978 2.039 13.060 2.854 9.387 2.044 18.773 4.083 27.752 6.938 27.75 8.572 42.445 27.345 47.748 53.465 0.41 2.857 1.225 5.714 1.634 8.57 1.225 6.53 2.449 13.060 3.674 19.59 1.225 6.122 2.449 12.244 4.079 18.773 1.634 8.163 3.268 15.917 4.898 24.079 1.225 5.713 2.449 11.835 3.264 17.549 1.225 5.714 2.044 11.427 3.268 16.733 1.63 8.162 3.264 15.916 4.894 24.079 1.634 6.938 2.859 13.876 4.083 20.814 1.225 5.306 2.039 10.203 2.854 15.508 1.225 5.713 2.044 11.019 3.268 16.733s4.489 9.387 8.162 9.387 7.343-4.081 8.567-9.795c2.859-13.876 5.308-27.752 8.162-41.628 1.225-6.938 2.859-13.468 4.083-20.406 2.039-8.979 3.674-17.957 5.303-26.936 1.634-9.387 3.674-18.365 5.308-27.752 1.225-5.714 2.039-11.019 3.264-16.733 0.815-4.081 1.634-8.162 2.449-12.243 2.039-9.795 3.674-19.998 5.713-29.792v-1.225c2.039-9.388 4.083-19.18 9.387-27.752 8.981-15.1 21.632-26.121 39.586-31.019 13.060-3.669 26.121-6.528 39.181-9.792 2.039-0.41 4.083-0.819 6.532-1.634 8.162-2.039 15.915-3.674 24.077-5.713 11.021-2.449 22.447-5.303 33.463-7.753 4.493-0.819 8.572-2.449 12.245-4.898 1.225-0.819 2.039-1.634 2.449-2.859s0.815-2.449 0.815-3.674c0-1.225 0-2.449-0.815-3.674l2.449 0.41z" />
<glyph unicode="&#xe910;" glyph-name="OfficialBadge" d="M293.032 810.778c37.514 2.854 73.397 17.941 102.348 42.407 32.622 27.728 73.804 42.815 116.62 42.815s83.998-15.087 116.621-42.815c28.949-24.465 64.427-39.553 102.349-42.407 42.406-3.262 82.368-22.019 112.947-52.194 30.174-30.174 48.525-70.135 52.194-112.95 2.854-37.514 17.941-73.397 42.406-102.348 27.729-32.622 42.816-73.804 42.816-116.62s-15.087-83.998-42.816-116.621c-24.465-28.949-39.552-64.427-42.406-102.349-3.26-42.406-22.020-82.368-52.194-112.947-30.174-30.174-70.135-48.525-112.947-52.194-37.517-2.854-73.399-17.941-102.349-42.406-32.623-27.729-73.805-42.816-116.621-42.816s-83.998 15.087-116.62 42.816c-28.951 24.465-64.426 39.552-102.348 42.406-42.407 3.26-82.368 22.020-112.95 52.194-30.174 30.174-48.524 70.135-52.194 112.947-2.854 37.517-17.941 73.399-42.407 102.349-27.728 32.623-42.815 73.805-42.815 116.621s15.087 83.998 42.815 116.62c24.465 28.951 39.553 64.426 42.407 102.348 3.262 42.407 22.019 82.368 52.194 112.95 30.174 30.174 70.135 48.524 112.95 52.194zM729.335 502.917c10.603 11.011 16.721 25.691 16.311 41.186 0 15.495-6.114 30.174-17.126 40.776-11.008 11.010-25.69 17.126-40.777 17.126-15.492 0-30.174-5.709-41.182-16.311l-192.87-192.87-75.845 75.844c-11.010 10.598-25.689 16.717-41.184 16.307-15.495 0-30.174-6.114-40.776-17.126-11.010-11.008-17.126-25.685-17.126-40.772 0-15.497 5.709-30.178 16.311-41.186l117.435-117.436c11.009-11.008 26.098-17.126 41.591-17.126 15.497 0 30.583 6.118 41.591 17.126l234.462 234.462h-0.815z" />
<glyph unicode="&#xe911;" glyph-name="NightModeCircle" d="M653.227 426.667c-19.439-10.189-41.626-13.892-63.317-10.569s-41.754 13.5-57.246 29.043c-15.497 15.539-25.609 35.631-28.868 57.335-3.255 21.702 0.516 43.878 10.765 63.284 3.354 7.365 4.544 15.532 3.43 23.548s-4.484 15.55-9.719 21.723c-5.231 6.173-12.113 10.73-19.84 13.14-7.723 2.41-15.974 2.572-23.791 0.469-35.273-9.013-67.566-27.117-93.658-52.506s-45.071-57.175-55.045-92.19c-9.973-35.012-10.591-72.030-1.793-107.354 8.798-35.328 26.705-67.733 51.936-93.978 26.246-25.229 58.649-43.136 93.978-51.934 35.324-8.798 72.341-8.183 107.354 1.792 35.017 9.971 66.799 28.954 92.19 55.044s43.494 58.385 52.506 93.658c1.997 7.787 1.754 15.979-0.7 23.633s-7.023 14.46-13.175 19.631c-6.153 5.175-13.641 8.503-21.602 9.604-7.966 1.101-16.077-0.068-23.403-3.375zM610.56 327.254c-12.557-14.831-28.062-26.884-45.53-35.392-17.472-8.508-36.518-13.286-55.936-14.029s-38.775 2.569-56.845 9.715c-18.069 7.151-34.449 17.988-48.099 31.817s-24.272 30.349-31.187 48.508c-6.915 18.159-9.973 37.559-8.979 56.964 0.995 19.409 6.019 38.391 14.754 55.753 8.735 17.357 20.989 32.704 35.981 45.065 8.316 8.064 17.472 15.215 27.307 21.333-4.774-26.264-3.115-53.295 4.847-78.776 7.957-25.481 21.973-48.649 40.849-67.529 18.876-18.876 42.048-32.892 67.529-40.849 25.481-7.962 52.51-9.621 78.775-4.847-6.118-9.835-13.269-18.991-21.333-27.307l-2.133-0.427zM803.84 720.214c-58.133 58.085-132.181 97.632-212.787 113.639-80.602 16.008-164.143 7.759-240.059-23.705s-140.8-84.729-186.449-153.062c-45.649-68.333-70.013-148.665-70.013-230.845 0-82.176 24.364-162.513 70.013-230.844 45.649-68.335 110.533-121.6 186.449-153.062 75.916-31.467 159.458-39.714 240.059-23.706 80.606 16.009 154.654 55.552 212.787 113.638 38.831 38.46 69.692 84.203 90.816 134.609 21.129 50.406 32.107 104.482 32.303 159.134 0.196 54.656-10.385 108.81-31.147 159.367s-51.29 96.522-89.839 135.264l-2.133-0.427zM760.747 177.92c-49.186-49.126-111.829-82.569-180.019-96.102-68.186-13.53-138.854-6.545-203.071 20.079-64.217 26.62-119.101 71.684-157.714 129.489-38.613 57.809-59.222 125.764-59.222 195.281s20.609 137.474 59.222 195.281c38.613 57.807 93.497 102.869 157.714 129.491s134.886 33.609 203.071 20.077c68.19-13.532 130.833-46.975 180.019-96.102 32.742-32.623 58.722-71.39 76.446-114.076 17.728-42.685 26.85-88.451 26.85-134.671s-9.122-91.985-26.85-134.673c-17.724-42.684-43.703-81.451-76.446-114.074z" />
<glyph unicode="&#xe912;" glyph-name="InvoiceHandSelect" d="M928 704v-256c0-8.486-3.371-16.627-9.374-22.626-5.999-6.003-14.14-9.374-22.626-9.374s-16.627 3.371-22.626 9.374c-6.003 5.999-9.374 14.14-9.374 22.626v256c0 25.461-10.116 49.879-28.117 67.882-18.005 18.004-42.423 28.118-67.883 28.118h-512c-25.461 0-49.879-10.114-67.882-28.118s-28.118-42.421-28.118-67.882v-341.333c0-25.459 10.114-49.877 28.118-67.883 18.004-18.001 42.421-28.117 67.882-28.117h85.333c8.487 0 16.626-3.371 22.627-9.374 6.001-5.999 9.373-14.14 9.373-22.626s-3.372-16.627-9.373-22.626c-6.001-6.003-14.141-9.374-22.627-9.374h-85.333c-42.435 0-83.131 16.858-113.137 46.861-30.006 30.007-46.863 70.703-46.863 113.139v341.333c0 42.435 16.857 83.131 46.863 113.137s70.703 46.863 113.137 46.863h512c42.436 0 83.132-16.857 113.139-46.863 30.003-30.006 46.861-70.703 46.861-113.137zM298.667 629.334h426.667c8.486 0 16.627 3.372 22.626 9.373 6.003 6.001 9.374 14.141 9.374 22.627s-3.371 16.626-9.374 22.627c-5.999 6.001-14.14 9.373-22.626 9.373h-426.667c-8.487 0-16.626-3.372-22.627-9.373s-9.373-14.141-9.373-22.627c0-8.487 3.372-16.626 9.373-22.627s14.141-9.373 22.627-9.373zM298.667 458.667h128c8.486 0 16.627 3.371 22.626 9.374 6.003 5.999 9.374 14.14 9.374 22.626s-3.371 16.627-9.374 22.627c-5.999 6.001-14.14 9.373-22.626 9.373h-128c-8.487 0-16.626-3.372-22.627-9.373s-9.373-14.141-9.373-22.627c0-8.486 3.372-16.627 9.373-22.626 6.001-6.003 14.141-9.374 22.627-9.374zM927.147 215.894l-15.36-123.733c-3.627-28.356-17.442-54.43-38.874-73.348-21.436-18.923-49.020-29.397-77.606-29.478h-162.133c-19.422 0.145-38.507 5.086-55.552 14.391-17.050 9.306-31.531 22.686-42.155 38.942l-82.773 124.587c-11.789 17.771-17.079 39.070-14.98 60.292s11.46 41.071 26.5 56.188c12.919 12.932 29.406 21.709 47.347 25.203 17.941 3.499 36.518 1.557 53.346-5.577v123.307c0 25.459 10.116 49.877 28.117 67.883 18.005 18.003 42.423 28.117 67.883 28.117s49.877-10.114 67.883-28.117c18.001-18.005 28.117-42.423 28.117-67.883v-68.693l72.107-11.947c29.982-4.851 56.93-21.099 75.217-45.346 18.287-24.252 26.496-54.626 22.916-84.787zM863.573 223.574c1.668 13.444-1.801 27.021-9.711 38.016s-19.682 18.598-32.956 21.291l-100.693 15.787c-7.501 1.216-14.323 5.060-19.247 10.846-4.924 5.781-7.629 13.129-7.633 20.727v96.427c0 8.486-3.371 16.627-9.374 22.626-5.999 6.003-14.14 9.374-22.626 9.374s-16.627-3.371-22.626-9.374c-6.003-5.999-9.374-14.14-9.374-22.626v-192c0.043-6.306-1.805-12.48-5.303-17.728s-8.486-9.327-14.323-11.712c-5.85-2.462-12.301-3.123-18.53-1.911-6.234 1.216-11.959 4.258-16.457 8.738l-25.173 25.173c-5.363 5.222-12.565 8.137-20.053 8.107-7.462-0.102-14.618-2.995-20.053-8.107-4.557-4.608-7.386-10.65-8.009-17.101-0.619-6.451 1.003-12.919 4.595-18.313l82.773-124.16c4.663-7.121 10.978-13.013 18.406-17.173s15.753-6.464 24.26-6.72h162.133c13.030 0.009 25.604 4.791 35.354 13.436 9.745 8.649 15.991 20.561 17.553 33.498l17.067 122.88z" />
<glyph unicode="&#xe913;" glyph-name="DarkMode" d="M683.605 554.24c14.080-14.080 32.427-21.76 52.48-21.76 19.627 0 38.4 7.68 52.48 21.76l64.853 64.853c14.080 14.080 21.76 32.427 21.76 52.48s-7.68 38.4-21.76 52.48l-64.853 64.853c-14.080 14.080-32.427 21.76-52.48 21.76-19.627 0-38.4-7.68-52.053-21.76l-64.853-64.853c-14.080-14.080-21.76-32.427-21.76-52.48s7.68-38.4 21.76-52.48l64.853-64.853h-0.427zM797.952 414.72c-91.307-44.373-201.813-26.453-274.347 43.947-70.827 72.96-88.747 183.467-44.373 274.773 8.96 18.347 6.4 40.533-6.4 56.747-12.8 15.787-33.707 23.467-54.615 18.347-66.56-17.067-127.573-51.627-175.787-99.84-149.76-145.92-153.173-386.987-6.4-537.6 73.813-71.68 169.387-107.52 264.962-107.52 95.573 0 197.547 38.4 271.787 114.347 48.64 48.64 83.2 109.653 100.267 176.64 4.693 20.053-2.56 41.387-18.347 54.187-16.213 12.8-37.973 15.36-56.32 6.4l-0.427-0.427z" />
<glyph unicode="&#xe914;" glyph-name="ChevronUp" horiz-adv-x="1365" d="M616.033 770.041c34.161 42.701 99.106 42.701 133.267 0l505.12-631.4c44.699-55.873 4.919-138.641-66.633-138.641h-1010.241c-71.552 0-111.332 82.768-66.634 138.641l505.121 631.4z" />
<glyph unicode="&#xe915;" glyph-name="ArrowDown" d="M789.76 341.334l-253.013-256c-2.991-3.55-6.711-6.413-10.91-8.401-4.194-1.988-8.768-3.051-13.41-3.119-4.211-0.068-8.393 0.73-12.284 2.342-3.887 1.617-7.407 4.011-10.33 7.044l-256 256c-5.993 5.999-9.359 14.131-9.359 22.613 0 8.478 3.366 16.614 9.359 22.613 2.941 3.017 6.458 5.419 10.342 7.057s8.056 2.483 12.271 2.483c4.215 0 8.387-0.845 12.271-2.483s7.4-4.041 10.342-7.057l200.96-200.533v562.346c0 8.487 3.371 16.626 9.374 22.627 5.999 6.001 14.14 9.373 22.626 9.373s16.627-3.372 22.626-9.373c6.003-6.001 9.374-14.141 9.374-22.627v-561.066l200.533 198.827c2.94 3.017 6.46 5.419 10.342 7.057s8.055 2.483 12.271 2.483c4.215 0 8.388-0.845 12.271-2.483s7.403-4.041 10.342-7.057c5.248-5.867 8.149-13.461 8.149-21.333s-2.901-15.467-8.149-21.333z" />
<glyph unicode="&#xe916;" glyph-name="ArrowUp" d="M789.76 467.2c-6.071-6.016-14.276-9.395-22.827-9.395s-16.755 3.379-22.827 9.395l-199.68 201.388v-561.921c0-8.486-3.371-16.627-9.374-22.626-5.999-6.003-14.14-9.374-22.626-9.374s-16.627 3.371-22.626 9.374c-6.003 5.999-9.374 14.14-9.374 22.626v562.774l-200.533-200.108c-2.437-4.122-5.768-7.646-9.748-10.313-3.98-2.662-8.508-4.399-13.249-5.082-4.741-0.678-9.574-0.29-14.144 1.148-4.57 1.434-8.759 3.878-12.258 7.147-3.5 3.273-6.22 7.287-7.961 11.75-1.741 4.459-2.458 9.254-2.099 14.033 0.359 4.774 1.786 9.408 4.176 13.559s5.68 7.714 9.629 10.424l256 256c5.999 5.993 14.135 9.359 22.613 9.359 8.482 0 16.614-3.366 22.613-9.359l256-256c5.641-6.2 8.623-14.371 8.303-22.751-0.32-8.375-3.913-16.294-10.010-22.050z" />
<glyph unicode="&#xe917;" glyph-name="BankIBAN" d="M948.907 60.16l-27.307 61.013c-5.325 12.762-13.67 24.034-24.32 32.853-4.335 3.516-9.242 6.255-14.507 8.107 6.797 1.856 13.376 4.429 19.627 7.68 15.748 9.156 28.386 22.831 36.267 39.253 8.956 18.914 13.338 39.667 12.8 60.587 2.121 31.031-7.987 61.662-28.16 85.333-10.513 10.172-23.053 18.010-36.8 23.010s-28.395 7.044-42.987 6.003h-107.093c-4.86 0.29-9.724-0.516-14.229-2.364s-8.538-4.685-11.797-8.303c-6.592-8.99-9.766-20.028-8.96-31.147v-294.827c-0.691-11.238 2.47-22.374 8.96-31.573 3.132-3.686 7.070-6.605 11.507-8.529 4.442-1.92 9.263-2.799 14.093-2.564 4.779-0.303 9.557 0.546 13.939 2.475 4.382 1.933 8.235 4.89 11.234 8.619 6.49 9.199 9.651 20.335 8.96 31.573v107.52h33.28c7.987 0.265 15.915-1.498 23.040-5.12 7.488-4.693 13.193-11.75 16.213-20.053l42.667-94.293c3.575-8.691 9.126-16.435 16.213-22.613 6.647-5.291 14.976-8.017 23.467-7.68 4.053-0.226 8.115 0.371 11.93 1.766s7.305 3.55 10.257 6.34c5.239 5.7 8.137 13.167 8.107 20.907-0.162 9.045-2.351 17.937-6.4 26.027zM831.147 213.334h-61.013v106.667h61.013c7.637 0.849 15.373 0.111 22.711-2.163 7.343-2.278 14.135-6.042 19.955-11.063 4.992-5.171 8.828-11.345 11.255-18.112s3.392-13.973 2.825-21.141c0.521-7.228-0.465-14.485-2.884-21.312-2.423-6.831-6.238-13.086-11.196-18.368-5.717-5.248-12.463-9.246-19.806-11.742-7.347-2.5-15.13-3.439-22.861-2.765zM163.84 143.787h279.040c8.486 0 16.627 3.371 22.626 9.374 6.003 5.999 9.374 14.14 9.374 22.626s-3.371 16.627-9.374 22.626c-5.999 6.003-14.14 9.374-22.626 9.374h-38.4v280.32h465.067c8.452 0.111 16.529 3.516 22.507 9.493s9.382 14.054 9.493 22.507v128c0.051 6.197-1.749 12.269-5.171 17.437s-8.307 9.199-14.029 11.576l-384 167.68c-4.002 1.897-8.371 2.882-12.8 2.882s-8.798-0.984-12.8-2.882l-384-167.68c-5.724-2.377-10.608-6.408-14.028-11.576s-5.221-11.24-5.172-17.437v-128c0.111-8.453 3.517-16.529 9.495-22.507s14.053-9.382 22.505-9.493h52.907v-280.32h-10.667c-5.906-0.034-11.691-1.685-16.729-4.766-5.038-3.085-9.138-7.484-11.858-12.727l-42.667-85.333c-2.179-4.531-3.344-9.481-3.413-14.507v-42.667c0.111-8.452 3.517-16.529 9.495-22.507s14.053-9.382 22.505-9.493h341.333c8.486 0 16.627 3.371 22.626 9.374 6.003 5.999 9.374 14.14 9.374 22.626s-3.371 16.627-9.374 22.626c-5.999 6.003-14.14 9.374-22.626 9.374h-309.333v2.987l30.72 61.013zM341.333 207.787h-122.88v280.32h122.88v-280.32zM133.12 552.107v75.52l352.427 153.6 352-153.6v-75.52h-704.427zM630.187 378.027c6.49-9.037 9.655-20.041 8.96-31.147v-298.667c0.691-11.238-2.47-22.374-8.96-31.573-2.999-3.729-6.852-6.686-11.234-8.619-4.382-1.929-9.161-2.778-13.939-2.475-4.83-0.235-9.651 0.644-14.093 2.564-4.437 1.924-8.375 4.843-11.507 8.529-6.135 9.348-9.126 20.407-8.533 31.573v298.667c-0.589 11.029 2.402 21.956 8.533 31.147 3.068 3.767 6.993 6.737 11.447 8.67 4.454 1.929 9.31 2.761 14.153 2.423 4.783 0.341 9.574-0.491 13.961-2.423 4.39-1.937 8.239-4.911 11.213-8.67z" />
<glyph unicode="&#xe918;" glyph-name="BankIn" d="M896 482.987c4.22-0.055 8.405 0.73 12.314 2.317 3.908 1.591 7.458 3.947 10.441 6.929s5.338 6.532 6.929 10.441c1.587 3.908 2.372 8.094 2.317 12.314v128c0.077 6.257-1.707 12.397-5.124 17.639s-8.32 9.349-14.076 11.801l-384 167.68c-4.058 1.69-8.405 2.56-12.8 2.56s-8.742-0.87-12.8-2.56l-384-167.68c-5.757-2.452-10.657-6.56-14.075-11.801s-5.202-11.381-5.125-17.639v-128c-0.058-4.22 0.731-8.405 2.319-12.314s3.943-7.458 6.926-10.441c2.983-2.982 6.534-5.338 10.442-6.929 3.909-1.587 8.096-2.372 12.314-2.317h464.64v-280.32h-37.973c-8.486 0-16.627-3.371-22.626-9.374-6.003-5.999-9.374-14.14-9.374-22.626s3.371-16.627 9.374-22.626c5.999-6.003 14.14-9.374 22.626-9.374h279.040l30.293-61.013v-2.987h-437.333c-8.487 0-16.626-3.371-22.627-9.374-6.001-5.999-9.373-14.14-9.373-22.626s3.372-16.627 9.373-22.626c6.001-6.003 14.141-9.374 22.627-9.374h469.333c4.22-0.055 8.405 0.73 12.314 2.317 3.908 1.591 7.458 3.947 10.441 6.929s5.338 6.532 6.929 10.441c1.587 3.908 2.372 8.094 2.317 12.314v42.667c0.149 4.915-1.028 9.779-3.413 14.080l-42.667 85.333c-2.539 5.419-6.588 9.988-11.657 13.167s-10.948 4.826-16.93 4.753h-10.667v280.32h53.333zM778.667 202.667h-122.027v280.32h122.027v-280.32zM160 546.987v75.093l352 154.027 352-154.027v-75.093h-704zM449.28 233.387l-128-128c-6.066-5.653-14.089-8.73-22.38-8.585-8.29 0.149-16.2 3.507-22.063 9.37s-9.222 13.773-9.367 22.063c-0.146 8.29 2.931 16.311 8.583 22.379l73.387 73.387h-221.44c-8.487 0-16.626 3.371-22.627 9.374-6.001 5.999-9.373 14.14-9.373 22.626s3.372 16.627 9.373 22.626c6.001 6.003 14.141 9.374 22.627 9.374h221.44l-73.387 73.387c-3.019 2.94-5.418 6.46-7.057 10.342s-2.482 8.055-2.482 12.271c0 4.215 0.844 8.388 2.482 12.271s4.038 7.403 7.057 10.342c6 5.995 14.133 9.357 22.613 9.357s16.613-3.362 22.613-9.357l128-128c2.893-2.961 5.21-6.43 6.827-10.24 1.69-3.904 2.564-8.115 2.564-12.373s-0.875-8.469-2.564-12.373c-1.617-3.81-3.934-7.279-6.827-10.24z" />
<glyph unicode="&#xe919;" glyph-name="BankKey" d="M469.333 224h-80.64v280.32h464.64c8.486 0 16.627 3.371 22.626 9.373 6.003 6.001 9.374 14.141 9.374 22.627v128c-0.034 6.234-1.86 12.326-5.265 17.547s-8.243 9.35-13.935 11.893l-384 167.68c-4.058 1.69-8.405 2.56-12.8 2.56s-8.742-0.87-12.8-2.56l-384-167.68c-5.691-2.543-10.529-6.672-13.935-11.893s-5.233-11.313-5.265-17.547v-128c0-8.487 3.372-16.626 9.373-22.627s14.141-9.373 22.627-9.373h53.333v-280.32h-10.667c-5.906-0.034-11.691-1.685-16.729-4.766-5.038-3.085-9.138-7.484-11.858-12.727l-42.667-85.333c-2.179-4.531-3.344-9.481-3.413-14.507v-42.667c0.111-8.452 3.517-16.529 9.495-22.507s14.053-9.382 22.505-9.493h341.333c8.486 0 16.627 3.371 22.626 9.374 6.003 5.999 9.374 14.14 9.374 22.626s-3.371 16.627-9.374 22.626c-5.999 6.003-14.14 9.374-22.626 9.374h-309.333v2.987l30.293 61.013h321.707c8.486 0 16.627 3.371 22.626 9.374 6.003 5.999 9.374 14.14 9.374 22.626s-3.371 16.627-9.374 22.626c-5.999 6.003-14.14 9.374-22.626 9.374zM117.333 568.32v75.093l352 153.6 352-153.6v-75.093h-704zM324.693 224h-122.027v280.32h122.027v-280.32zM823.467 256c0-6.75-2.001-13.35-5.751-18.965-3.75-5.611-9.084-9.988-15.322-12.57-6.234-2.586-13.099-3.26-19.721-1.941-6.622 1.314-12.702 4.565-17.476 9.34s-8.026 10.854-9.34 17.476c-1.318 6.622-0.644 13.487 1.941 19.721 2.581 6.238 6.959 11.571 12.57 15.322 5.615 3.75 12.215 5.751 18.965 5.751 9.054 0 17.737-3.597 24.137-9.997s9.997-15.083 9.997-24.137zM789.333 437.334c-48.094 0-94.217-19.106-128.222-53.111s-53.111-80.128-53.111-128.222c0.205-12.676 1.924-25.28 5.12-37.547l-68.693-68.267c-13.948-14.076-21.773-33.092-21.76-52.907v-32.853c-0.055-9.843 1.835-19.597 5.559-28.706 3.729-9.105 9.22-17.387 16.158-24.367s15.189-12.518 24.277-16.294c9.088-3.78 18.829-5.726 28.672-5.726h32.853c19.686 0.009 38.562 7.834 52.48 21.76l68.267 68.693c12.267-3.196 24.87-4.915 37.547-5.12 48.094 0 94.217 19.106 128.222 53.111s53.111 80.128 53.111 128.222-19.106 94.217-53.111 128.222c-34.005 34.005-80.128 53.111-128.222 53.111h0.853zM789.333 138.667c-12.672 0.154-25.225 2.462-37.12 6.827h-23.467c-1.865-0.883-3.588-2.035-5.12-3.413-1.715-0.738-3.298-1.745-4.693-2.987l-78.933-82.773c-2.142-1.843-4.855-2.897-7.68-2.987h-34.987c-2.829 0-5.542 1.122-7.543 3.123s-3.123 4.715-3.123 7.543v32.853c0.090 2.825 1.143 5.538 2.987 7.68l80.213 80.213v2.987c1.813 2.010 3.255 4.318 4.267 6.827 0.192 1.702 0.192 3.418 0 5.12 0.448 2.253 0.448 4.574 0 6.827 0.414 1.971 0.414 4.002 0 5.973 0.209 1.698 0.209 3.422 0 5.12-4.365 11.895-6.673 24.448-6.827 37.12 0 23.206 6.882 45.892 19.776 65.186 12.89 19.298 31.215 34.334 52.655 43.217 21.44 8.879 45.035 11.204 67.793 6.677 22.758-4.531 43.665-15.706 60.075-32.115 16.41-16.405 27.588-37.316 32.115-60.075s2.202-46.353-6.677-67.793c-8.883-21.44-23.919-39.765-43.217-52.655-19.294-12.894-41.98-19.776-65.186-19.776l4.693 1.28z" />
<glyph unicode="&#xe91a;" glyph-name="BankMagic" d="M938.667 525.654c4.22-0.058 8.405 0.731 12.314 2.319s7.458 3.943 10.441 6.926c2.982 2.983 5.338 6.534 6.925 10.442 1.591 3.909 2.377 8.096 2.321 12.314v128c0.077 6.257-1.707 12.397-5.124 17.639s-8.32 9.349-14.076 11.801l-384 167.68c-4.058 1.69-8.405 2.56-12.8 2.56s-8.742-0.87-12.8-2.56l-384-167.68c-5.691-2.543-10.53-6.672-13.935-11.893s-5.233-11.313-5.265-17.547v-128c0-8.487 3.372-16.626 9.373-22.627s14.141-9.373 22.627-9.373h465.067v-280.32h-38.4c-8.486 0-16.627-3.371-22.626-9.374-6.003-5.999-9.374-14.14-9.374-22.626s3.371-16.627 9.374-22.626c5.999-6.003 14.14-9.374 22.626-9.374h279.040l30.293-61.013v-3.413h-437.333c-8.486 0-16.627-3.371-22.626-9.374-6.003-5.999-9.374-14.14-9.374-22.626s3.371-16.627 9.374-22.626c5.999-6.003 14.14-9.374 22.626-9.374h469.333c8.486 0 16.627 3.371 22.626 9.374 6.003 5.999 9.374 14.14 9.374 22.626v43.093c-0.013 5.035-1.178 9.997-3.413 14.507l-42.667 85.333c-2.539 5.419-6.588 9.988-11.657 13.167s-10.948 4.826-16.93 4.753h-10.667v279.893h53.333zM821.333 245.334h-122.027v280.32h122.027v-280.32zM202.24 589.654v75.093l352.427 153.6 352-153.6v-75.093h-704.427zM316.16 147.2c-22.632 0-44.337 8.99-60.34 24.994s-24.994 37.709-24.994 60.339c0 8.486-3.372 16.627-9.373 22.626-6.001 6.003-14.141 9.374-22.627 9.374s-16.626-3.371-22.627-9.374c-6.001-5.999-9.373-14.14-9.373-22.626 0.007-22.268-8.69-43.657-24.235-59.597-15.545-15.945-36.705-25.182-58.965-25.737-8.487 0-16.626-3.371-22.627-9.374-6.001-5.999-9.373-14.14-9.373-22.626s3.372-16.627 9.373-22.626c6.001-6.003 14.141-9.374 22.627-9.374 22.561 0.457 44.384-8.038 60.697-23.629 16.312-15.595 25.784-37.013 26.343-59.571 0-8.486 3.372-16.627 9.373-22.626 6.001-6.003 14.141-9.374 22.627-9.374s16.626 3.371 22.627 9.374c6.001 5.999 9.373 14.14 9.373 22.626 0.557 22.259 9.792 43.422 25.735 58.965s37.331 24.243 59.598 24.235c8.487 0 16.626 3.371 22.627 9.374 6.001 5.999 9.373 14.14 9.373 22.626s-3.372 16.627-9.373 22.626c-6.001 6.003-14.141 9.374-22.627 9.374h-3.84zM200.533 91.734c-6.947 8.653-14.816 16.521-23.467 23.467 8.66 7.095 16.529 15.108 23.467 23.893 7.089-8.794 15.099-16.802 23.893-23.893-8.787-6.938-16.798-14.805-23.893-23.467zM512 309.334c8.486 0 16.627 3.371 22.626 9.374 6.003 5.999 9.374 14.14 9.374 22.626s-3.371 16.627-9.374 22.626c-5.999 6.003-14.14 9.374-22.626 9.374-12.608 0-25.092 2.483-36.736 7.309-11.648 4.821-22.234 11.895-31.147 20.809s-15.987 19.499-20.81 31.147c-4.824 11.644-7.308 24.128-7.308 36.736 0 8.486-3.372 16.627-9.373 22.626-6.001 6.003-14.141 9.374-22.627 9.374s-16.626-3.371-22.627-9.374c-6.001-5.999-9.373-14.14-9.373-22.626 0-25.459-10.114-49.877-28.118-67.883-18.004-18.001-42.421-28.117-67.882-28.117-8.487 0-16.626-3.371-22.627-9.374-6.001-5.999-9.373-14.14-9.373-22.626s3.372-16.627 9.373-22.626c6.001-6.003 14.141-9.374 22.627-9.374 25.461 0 49.879-10.116 67.882-28.117 18.004-18.005 28.118-42.423 28.118-67.883 0-8.486 3.372-16.627 9.373-22.626 6.001-6.003 14.141-9.374 22.627-9.374s16.626 3.371 22.627 9.374c6.001 5.999 9.373 14.14 9.373 22.626 0 25.459 10.114 49.877 28.117 67.883 18.005 18.001 42.423 28.117 67.883 28.117zM384 309.334c-9.35 11.908-20.093 22.652-32 32 12.106 9.122 22.877 19.895 32 32 8.894-12.305 19.697-23.104 32-32-12.107-9.122-22.877-19.895-32-32z" />
<glyph unicode="&#xe91b;" glyph-name="Card" d="M269.227 360.96c-4.267 4.267-7.68 10.24-8.533 16.213-1.28 6.4-0.427 12.8 1.707 18.347 2.56 5.973 6.4 10.667 11.947 14.507 5.12 3.413 11.52 5.547 17.92 5.547h113.067c8.533 0 16.64-3.413 22.613-9.387s9.387-14.080 9.387-22.613-3.413-16.64-9.387-22.613-14.080-9.387-22.613-9.387h-113.067c-8.533 0-16.64 3.413-22.613 9.387h-0.427zM938.667 602.027v-352.427c0-43.093-17.067-84.907-47.787-115.627-30.293-30.72-71.68-48.213-114.773-48.64h-528.213c-21.76 0-43.093 4.267-63.147 12.8-20.48 8.107-38.827 20.48-53.76 36.267s-26.88 34.133-34.56 54.187c-7.68 20.053-11.52 41.387-11.093 63.147v352c0 43.093 17.067 84.907 47.787 115.627 30.293 30.72 71.68 48.213 114.773 48.64h528.213c21.76 0 43.093-4.267 63.147-12.8 20.053-8.107 38.4-20.48 53.76-35.84 14.933-15.36 27.307-33.707 35.413-53.76 7.68-20.48 11.093-41.813 10.24-63.573zM874.667 527.787h-727.040v-276.053c0-26.453 10.667-52.053 29.44-70.827s44.373-29.44 70.827-29.44h528.213c13.227 0 26.027 2.56 38.4 7.68 24.32 10.24 43.947 29.867 54.187 54.187 5.12 12.373 7.68 25.173 7.68 38.4l-1.707 276.053zM874.667 603.734c0 13.227-2.56 26.027-7.68 38.4-10.24 24.32-29.867 43.947-54.187 54.187-12.373 5.12-25.173 7.68-38.4 7.68h-526.507c-26.453 0-52.053-10.667-70.827-29.44s-29.44-44.373-29.44-70.827v-10.667h728.747l-1.707 10.667z" />
<glyph unicode="&#xe91c;" glyph-name="CardFill" d="M82.581 602.839c0 91.223 73.939 165.161 165.161 165.161h528.518c91.221 0 165.158-73.939 165.158-165.161v-11.011h-858.838v11.011zM82.581 525.764v-275.267c0-91.226 73.939-165.163 165.161-165.163h528.518c91.221 0 165.158 73.937 165.158 165.163v275.267h-858.838zM258.755 382.622c0 18.244 14.789 33.033 33.033 33.033h113.19c18.243 0 33.034-14.788 33.034-33.033 0-18.24-14.79-33.033-33.034-33.033h-113.19c-18.243 0-33.033 14.793-33.033 33.033z" />
<glyph unicode="&#xe91d;" glyph-name="ClockArrowDown" d="M454.827 128c3.021-2.944 5.419-6.46 7.057-10.342 1.638-3.887 2.483-8.060 2.483-12.271 0-4.215-0.845-8.388-2.483-12.275-1.638-3.883-4.036-7.398-7.057-10.338l-85.333-85.333c-2.839-3.038-6.345-5.376-10.24-6.827-2.808-0.64-5.725-0.64-8.533 0h-8.533c-2.398-0.444-4.856-0.444-7.253 0-4.37 2.057-8.068 5.312-10.667 9.387l-85.333 85.333c-3.543 6.229-4.891 13.47-3.828 20.557s4.474 13.615 9.687 18.534c5.213 4.919 11.928 7.945 19.066 8.593s14.287-1.122 20.302-5.018l30.72-30.72v180.053c0 8.486 3.372 16.623 9.373 22.626 6.001 5.999 14.141 9.374 22.627 9.374s16.626-3.375 22.627-9.374c6.001-6.003 9.373-14.14 9.373-22.626v-178.773l30.72 29.44c6 5.99 14.133 9.357 22.613 9.357 8.482 0 16.614-3.366 22.613-9.357zM690.347 823.892c-78.165 36.951-165.897 48.656-251.012 33.491-85.121-15.165-163.409-56.449-224.004-118.122s-100.49-140.678-114.151-226.051c-13.661-85.373-0.41-172.883 37.914-250.383 1.877-3.785 4.48-7.159 7.662-9.937 3.182-2.773 6.879-4.894 10.88-6.242s8.23-1.894 12.442-1.609c4.212 0.29 8.327 1.404 12.109 3.281 3.782 1.873 7.157 4.48 9.933 7.659 2.776 3.183 4.898 6.882 6.245 10.88 1.347 4.002 1.893 8.23 1.606 12.442-0.287 4.215-1.401 8.329-3.278 12.113-32.504 65.553-43.771 139.61-32.233 211.87 11.538 72.255 45.308 139.12 96.612 191.293s117.592 87.062 189.645 99.813c72.051 12.751 146.287 2.731 212.382-28.667s120.759-82.613 156.395-146.522c35.635-63.909 50.466-137.332 42.436-210.066-8.034-72.73-38.528-141.146-87.253-195.742-48.721-54.592-113.246-92.642-184.597-108.86-7.275-2.701-13.325-7.953-17.015-14.775-3.695-6.827-4.783-14.763-3.059-22.332 1.724-7.565 6.135-14.251 12.42-18.807 6.281-4.553 14.007-6.669 21.734-5.952 84.348 19.238 160.597 64.294 218.138 128.896s93.508 145.536 102.899 231.539c9.387 86.003-8.269 172.791-50.517 248.288-42.244 75.497-106.978 135.944-185.186 172.928l0.853-0.427zM647.68 338.774c3.908 7.151 4.983 15.509 3.004 23.415-1.975 7.906-6.857 14.78-13.67 19.251l-102.827 62.72v133.118c0 8.487-3.371 16.626-9.374 22.628-5.999 6.001-14.14 9.373-22.626 9.373s-16.627-3.372-22.626-9.373c-6.003-6.001-9.374-14.141-9.374-22.628v-150.611c0.004-5.487 1.421-10.88 4.109-15.663 2.692-4.783 6.566-8.794 11.251-11.644l118.187-72.107c3.657-2.214 7.718-3.674 11.947-4.292 4.224-0.619 8.533-0.384 12.672 0.691 4.134 1.071 8.013 2.961 11.405 5.559 3.396 2.598 6.234 5.85 8.35 9.562h-0.427z" />
<glyph unicode="&#xe91e;" glyph-name="Home" d="M866.133 609.709l-256 200.96c-28.070 21.797-62.596 33.628-98.133 33.628s-70.063-11.831-98.133-33.628l-256-199.253c-19.529-15.080-35.284-34.493-46.021-56.708s-16.162-46.62-15.846-71.294v-312.747c0-42.432 16.857-83.127 46.863-113.135 14.857-14.857 32.496-26.641 51.908-34.684s40.218-12.181 61.229-12.181h512c42.436 0 83.132 16.858 113.139 46.865 30.003 30.007 46.861 70.703 46.861 113.135v312.747c0.051 24.384-5.5 48.456-16.226 70.353s-26.342 41.038-45.641 55.942zM864 170.667c0-25.459-10.116-49.877-28.117-67.878-18.005-18.005-42.423-28.122-67.883-28.122h-512c-25.461 0-49.879 10.116-67.882 28.122-18.004 18.001-28.118 42.419-28.118 67.878v312.747c-0.019 14.656 3.316 29.117 9.751 42.281s15.796 24.681 27.369 33.668l256 199.253c16.841 13.078 37.555 20.177 58.88 20.177s42.039-7.099 58.88-20.177l256-199.253c11.571-8.987 20.937-20.503 27.371-33.668s9.766-27.625 9.749-42.281v-312.747zM672 213.334c-0.111-8.452-3.516-16.525-9.493-22.502s-14.054-9.387-22.507-9.498h-256c-8.487 0-16.626 3.375-22.627 9.374-6.001 6.003-9.373 14.14-9.373 22.626 0 8.491 3.372 16.627 9.373 22.63 6.001 5.999 14.141 9.37 22.627 9.37h256c8.452-0.107 16.529-3.516 22.507-9.493s9.382-14.050 9.493-22.507z" />
<glyph unicode="&#xe91f;" glyph-name="HomeFill" d="M922.027 557.227c-11.093 22.613-26.88 42.24-46.933 57.173l-262.4 204.373c-28.587 22.187-64 34.56-100.693 34.56s-71.68-11.947-100.693-34.56l-262.4-204.373c-19.627-15.36-35.84-34.987-46.933-57.173-11.093-22.613-16.64-47.36-16.64-72.107v-320.853c0-43.52 17.493-85.333 48.213-116.053s72.533-48.213 116.053-48.213h525.227c43.52 0 85.333 17.493 116.053 48.213s48.213 72.533 48.213 116.053v320.853c0 25.173-5.547 49.493-16.64 72.107h-0.427zM666.453 186.454c-5.973-5.973-14.507-9.813-23.040-9.813h-262.827c-8.533 0-17.067 3.413-23.040 9.813-5.973 5.973-9.813 14.507-9.813 23.040s3.413 17.067 9.813 23.040c5.973 5.973 14.507 9.813 23.040 9.813h262.4c8.533 0 17.067-3.413 23.040-9.813 5.973-5.973 9.813-14.507 9.813-23.040s-3.413-17.067-9.813-23.040h0.427z" />
<glyph unicode="&#xe920;" glyph-name="LaptopCheck" d="M780.8 778.669h-537.6c-37.323 1.622-73.768-11.61-101.357-36.8s-44.073-60.284-45.843-97.6v-341.335c1.22-27.691 13.345-53.777 33.729-72.563 20.384-18.782 47.371-28.74 75.071-27.703h614.4c27.699-1.037 54.686 8.922 75.072 27.703 20.382 18.786 32.508 44.873 33.728 72.563v341.335c-1.771 37.316-18.253 72.411-45.841 97.6-27.593 25.19-64.034 38.422-101.359 36.8zM864 302.934c-1.579-10.551-7.057-20.126-15.351-26.842-8.29-6.711-18.799-10.074-29.449-9.425h-614.4c-10.289-0.115-20.275 3.49-28.115 10.155s-13.009 15.94-14.551 26.112v341.335c0.907 10.254 3.844 20.225 8.639 29.334s11.354 17.173 19.295 23.724c7.941 6.551 17.104 11.458 26.959 14.435s20.201 3.965 30.441 2.907h533.333c20.335 1.54 40.457-4.98 56.026-18.152 15.565-13.172 25.327-31.939 27.174-52.248v-341.335zM928 106.667c-0.111-8.452-3.516-16.525-9.493-22.502s-14.054-9.387-22.507-9.498h-768c-8.487 0-16.626 3.375-22.627 9.374-6.001 6.003-9.373 14.14-9.373 22.626 0 8.491 3.372 16.627 9.373 22.63 6.001 5.999 14.141 9.37 22.627 9.37h768c8.452-0.107 16.529-3.516 22.507-9.493s9.382-14.050 9.493-22.507zM640 576.856c5.995-6 9.357-14.133 9.357-22.613s-3.362-16.614-9.357-22.613l-133.547-128.002c-5.824-5.333-13.436-8.294-21.333-8.294s-15.509 2.961-21.333 8.294l-79.787 76.8c-4.369 5.995-6.52 13.321-6.086 20.723s3.426 14.427 8.465 19.869c5.039 5.442 11.811 8.965 19.16 9.966s14.816-0.581 21.128-4.476l58.88-57.175 111.787 108.375c5.973 5.132 13.623 7.881 21.495 7.724s15.411-3.211 21.171-8.577z" />
<glyph unicode="&#xe921;" glyph-name="ListHistory" d="M85.333 330.667c0 17.493 14.507 32 32 32h213.333c17.493 0 32-14.507 32-32s-14.507-32-32-32h-213.333c-17.493 0-32 14.507-32 32zM117.333 512h213.333c17.493 0 32 14.507 32 32s-14.507 32-32 32h-213.333c-17.493 0-32-14.507-32-32s14.507-32 32-32zM885.333 149.334h-768c-17.493 0-32-14.507-32-32s14.507-32 32-32h768c17.493 0 32 14.507 32 32s-14.507 32-32 32zM680.533 456.534h81.067c17.493 0 32 14.507 32 32s-14.507 32-32 32h-49.067v65.28c0 17.493-14.507 32-32 32s-32-14.507-32-32v-97.28c0-17.493 14.507-32 32-32zM469.333 501.334c0 123.733 100.267 224 224 224s224-100.267 224-224-100.267-224-224-224-224 100.267-224 224zM533.333 501.334c0-88.32 71.68-160 160-160s160 71.68 160 160c0 88.32-71.68 160-160 160s-160-71.68-160-160z" />
<glyph unicode="&#xe922;" glyph-name="NeoZarinOutline" d="M899.413 810.667h-328.533c-10.18-0.020-20.126-3.076-28.561-8.776s-14.98-13.786-18.799-23.224c-29.013-71.68-66.56-165.12-104.107-260.693h-317.44c-4.797 0.286-9.589-0.623-13.948-2.647s-8.146-5.097-11.022-8.95c-2.877-3.849-4.752-8.35-5.457-13.103s-0.22-9.609 1.414-14.127l133.12-360.107c2.98-8.73 7.968-16.636 14.564-23.083s14.615-11.255 23.409-14.037h412.16c4.659 0.102 9.271 0.969 13.653 2.56h4.693c7.313 3.051 13.948 7.526 19.516 13.167s9.954 12.335 12.911 19.686l239.787 622.933c3.14 7.764 4.331 16.18 3.46 24.51s-3.767 16.32-8.444 23.269c-4.672 6.949-10.982 12.646-18.368 16.589-7.39 3.944-15.633 6.015-24.009 6.032zM339.2 143.36c18.347 46.080 42.667 107.947 69.973 176.213 15.36 38.827 31.573 79.787 48.213 120.747l110.080-298.667-228.267 1.707zM152.32 453.974h241.493c-49.067-123.307-96-240.64-123.733-310.613h-2.987l-114.773 310.613zM650.667 143.36h-14.933l-124.16 335.36c-4.749 13.248-14.153 24.316-26.453 31.147 34.133 85.333 67.84 170.667 94.293 236.8h301.227l-229.973-603.307z" />
<glyph unicode="&#xe923;" glyph-name="PasswordSMS-1" d="M306.667 544.152c-6.643-6.694-11.155-15.205-12.968-24.46-1.813-9.253-0.846-18.84 2.78-27.544 3.626-8.708 9.748-16.145 17.594-21.376s17.066-8.026 26.497-8.026c9.431 0 18.65 2.795 26.497 8.026s13.969 12.668 17.594 21.376c3.626 8.704 4.593 18.291 2.78 27.544-1.813 9.255-6.326 17.766-12.969 24.46-4.44 4.474-9.721 8.025-15.54 10.449s-12.059 3.671-18.362 3.671c-6.303 0-12.544-1.248-18.363-3.671s-11.1-5.975-15.54-10.449zM494.729 544.152c-4.476-4.44-8.026-9.721-10.449-15.54s-3.669-12.059-3.669-18.361c0-6.306 1.246-12.544 3.669-18.364s5.973-11.102 10.449-15.539c8.99-8.994 21.188-14.046 33.903-14.046s24.913 5.052 33.903 14.046c8.99 8.99 14.042 21.184 14.042 33.903 0 12.714-5.052 24.909-14.042 33.901-4.442 4.474-9.724 8.025-15.539 10.449-5.82 2.423-12.062 3.671-18.364 3.671s-12.544-1.248-18.364-3.671c-5.82-2.423-11.098-5.975-15.539-10.449zM881.092 795.758c-29.99 29.96-70.622 46.825-113.011 46.909h-511.737c-42.452 0-83.172-16.835-113.23-46.813s-47.001-70.653-47.114-113.105v-341.159c0-42.453 16.835-83.17 46.813-113.229s70.653-47.002 113.105-47.113h53.306v-138.598c0.035-6.016 1.767-11.9 4.995-16.973 3.228-5.077 7.823-9.139 13.255-11.721 5.433-2.586 11.483-3.584 17.458-2.88 5.975 0.7 11.63 3.072 16.318 6.839l203.844 163.332h202.133c42.453 0.111 83.127 17.054 113.105 47.113s46.814 70.775 46.814 113.229v341.159c0.145 42.268-16.41 82.882-46.054 113.009zM863.607 341.59c-0.094-25.549-10.202-50.044-28.147-68.233-18.031-17.92-42.385-28.028-67.806-28.143h-224.738l-8.529-4.693-161.196-127.932v100.642c0.115 4.25-0.63 8.482-2.191 12.437s-3.906 7.556-6.893 10.581c-2.987 3.029-6.556 5.423-10.491 7.036s-8.156 2.415-12.409 2.355h-85.289c-25.439 0.021-49.828 10.146-67.805 28.143-17.946 18.189-28.051 42.684-28.145 68.233v341.159c0.113 25.373 10.272 49.67 28.254 67.572s42.323 27.953 67.697 27.953h511.736c25.451 0 49.856-10.109 67.849-28.103s28.105-42.4 28.105-67.848v-341.159zM699.426 650.766c-8.448-0.111-16.521-3.516-22.494-9.49s-9.378-14.045-9.489-22.494v-213.222c0-8.482 3.371-16.619 9.365-22.618 5.999-5.999 14.135-9.365 22.618-9.365s16.619 3.366 22.618 9.365c5.995 5.999 9.365 14.135 9.365 22.618v213.222c0 8.483-3.371 16.618-9.365 22.616-5.999 5.998-14.135 9.368-22.618 9.368z" />
<glyph unicode="&#xe924;" glyph-name="PasswordSMS" d="M387.84 519.678c1.726-9.303 0.84-18.903-2.56-27.735-2.711-6.537-6.842-12.39-12.092-17.135-5.25-4.749-11.489-8.269-18.267-10.313-6.777-2.039-13.923-2.551-20.922-1.493s-13.675 3.657-19.546 7.607c-7.807 5.312-13.901 12.779-17.538 21.491s-4.659 18.295-2.942 27.578c1.96 9.216 6.555 17.665 13.227 24.32 4.361 4.541 9.582 8.167 15.36 10.667 6.004 2.248 12.362 3.404 18.773 3.413 6.128-0.074 12.194-1.23 17.92-3.413 5.909-2.49 11.272-6.114 15.787-10.667 6.536-6.694 10.983-15.143 12.8-24.32zM547.413 554.665c-11.43 4.212-23.983 4.212-35.413 0-5.845-2.376-11.093-6.019-15.36-10.667-4.557-4.356-8.192-9.586-10.684-15.377s-3.793-12.025-3.823-18.332c-0.098-6.323 1.216-12.591 3.84-18.347 2.492-5.905 6.114-11.268 10.667-15.787 4.403-4.463 9.655-8.004 15.441-10.423s11.994-3.665 18.266-3.665c6.272 0 12.48 1.246 18.266 3.665s11.034 5.961 15.441 10.423c4.476 4.446 8.030 9.728 10.453 15.552 2.423 5.82 3.674 12.062 3.674 18.368 0 6.308-1.25 12.552-3.674 18.374s-5.978 11.106-10.453 15.548c-4.634 4.809-10.334 8.463-16.64 10.667zM927.573 682.665v-341.335c-0.111-42.325-16.947-82.893-46.835-112.862-29.892-29.969-70.413-46.912-112.738-47.138h-202.667l-203.52-163.413c-4.727-3.904-10.53-6.285-16.64-6.827-5.817-0.896-11.769-0.004-17.067 2.56-5.469 2.795-10.16 6.899-13.653 11.947-3.038 5.18-4.657 11.068-4.693 17.067v138.667h-53.76c-42.326 0.226-82.848 17.169-112.737 47.138s-46.724 70.537-46.836 112.862v341.335c0.112 42.326 16.947 82.893 46.836 112.863s70.412 46.912 112.737 47.137h512c21.022 0.113 41.86-3.951 61.299-11.956s37.094-19.793 51.942-34.679c14.844-14.886 26.586-32.573 34.539-52.033s11.964-40.308 11.793-61.331zM864 682.665c0 25.46-10.116 49.879-28.117 67.882-18.005 18.003-42.423 28.118-67.883 28.118h-512c-25.387-0.113-49.695-10.277-67.607-28.268s-27.967-42.345-27.967-67.732v-341.335c0.095-25.562 10.205-50.069 28.16-68.267 17.994-17.63 42.222-27.443 67.413-27.307h85.333c4.257 0.017 8.471-0.858 12.373-2.56 3.916-1.613 7.416-4.096 10.24-7.253 3.023-2.94 5.481-6.409 7.253-10.24 0.602-4.1 0.602-8.269 0-12.373v-100.693l160.854 128 8.533 4.267h227.413c12.642 0 25.161 2.5 36.834 7.351 11.678 4.851 22.281 11.959 31.198 20.919 8.922 8.96 15.983 19.593 20.783 31.287 4.8 11.699 7.241 24.226 7.185 36.868v341.335zM699.733 650.665c-4.134-0.013-8.23-0.85-12.036-2.461-3.81-1.612-7.262-3.966-10.15-6.925-5.973-6.052-9.472-14.117-9.813-22.613v-213.335c0-8.486 3.371-16.623 9.374-22.626 5.999-5.999 14.14-9.374 22.626-9.374s16.627 3.375 22.626 9.374c6.003 6.003 9.374 14.14 9.374 22.626v213.335c0 8.487-3.371 16.626-9.374 22.627-5.999 6.001-14.14 9.373-22.626 9.373z" />
<glyph unicode="&#xe925;" glyph-name="ProfileCard" d="M272.213 432.214c24-23.97 56.533-37.436 90.453-37.436s66.454 13.466 90.454 37.436c17.903 17.903 30.097 40.717 35.034 65.553s2.394 50.576-7.3 73.967c-7.228 17.509-18.249 33.197-32.269 45.931s-30.696 22.198-48.818 27.708c-18.123 5.51-37.242 6.929-55.98 4.156s-36.625-9.671-52.374-20.195c-20.995-14.137-37.328-34.182-46.933-57.6-9.696-23.391-12.236-49.132-7.299-73.967 4.937-24.836 17.128-47.65 35.032-65.553zM303.36 546.987c4.070 9.761 10.481 18.37 18.666 25.067s17.893 11.276 28.267 13.333c12.3 2.51 25.068 1.322 36.693-3.413 11.778-4.991 21.856-13.291 29.013-23.893 6.972-10.495 10.688-22.814 10.688-35.413s-3.717-24.917-10.688-35.413c-7.157-10.603-17.235-18.901-29.013-23.893-11.626-4.736-24.393-5.922-36.693-3.413-10.374 2.057-20.082 6.635-28.267 13.333-8.185 6.694-14.596 15.305-18.666 25.067-6.266 15.608-6.266 33.032 0 48.64zM936.107 786.774c-10.816 10.964-23.701 19.667-37.914 25.6s-29.461 8.979-44.86 8.96h-682.667c-31.31-0.338-61.216-13.042-83.197-35.342s-34.251-52.387-34.137-83.698v-554.667c0.448-30.822 13.008-60.228 34.964-81.865s51.544-33.766 82.37-33.762h682.667c31.049 0.222 60.766 12.655 82.718 34.611 21.956 21.956 34.394 51.674 34.615 82.722v554.667c0.017 15.4-3.025 30.65-8.96 44.861s-14.635 27.099-25.6 37.913zM906.667 149.334c-0.111-14.11-5.769-27.61-15.744-37.589-9.98-9.98-23.479-15.633-37.589-15.744h-682.667c-14.11 0.111-27.611 5.764-37.589 15.744s-15.633 23.479-15.744 37.589v554.667c0.326 14.042 6.049 27.42 15.981 37.352s23.31 15.656 37.352 15.981h682.667c14.144 0 27.712-5.619 37.713-15.621s15.62-23.567 15.62-37.712v-554.667zM833.28 554.667c4.053-4.525 6.737-10.112 7.735-16.106s0.265-12.148-2.103-17.743c-2.372-5.594-6.289-10.397-11.29-13.849-5.005-3.452-10.884-5.406-16.956-5.636h-170.667c-8.486 0-16.627 3.371-22.626 9.374-6.003 6-9.374 14.139-9.374 22.626s3.371 16.626 9.374 22.627c5.999 6.001 14.14 9.373 22.626 9.373h170.667c4.292-0.169 8.508-1.201 12.39-3.034 3.887-1.833 7.36-4.428 10.223-7.633zM765.013 384c4.467-4.476 7.514-10.176 8.747-16.38 1.229-6.204 0.597-12.634-1.822-18.475-2.419-5.845-6.519-10.842-11.776-14.357s-11.439-5.397-17.762-5.402h-102.4c-8.486 0-16.627 3.371-22.626 9.374-6.003 5.999-9.374 14.14-9.374 22.626s3.371 16.627 9.374 22.626c5.999 6.003 14.14 9.374 22.626 9.374h102.4c8.482-0.009 16.619-3.383 22.613-9.387zM545.707 245.334c1.609-3.951 2.615-8.124 2.987-12.373-0.021-4.39-0.892-8.738-2.56-12.8-1.451-4.019-3.785-7.667-6.827-10.667-3.093-3.038-6.707-5.491-10.667-7.253-4.134-1.361-8.448-2.078-12.8-2.133-4.314-0.081-8.572 0.947-12.373 2.987-3.959 1.762-7.573 4.215-10.667 7.253-2.782 3.285-4.949 7.040-6.4 11.093-5.53 14.426-14.455 27.307-26.027 37.547-18.889 17.903-43.95 27.836-69.974 27.733h-55.467c-20.485-0.158-40.488-6.229-57.6-17.493-16.975-11.52-30.299-27.657-38.4-46.507-1.421-3.955-3.628-7.582-6.488-10.662s-6.313-5.547-10.152-7.258c-7.942-3.183-16.805-3.183-24.747 0-3.955 1.421-7.582 3.627-10.662 6.49-3.080 2.859-5.549 6.31-7.258 10.15-3.181 7.94-3.181 16.806 0 24.747 9.395 23.198 23.993 43.925 42.667 60.587 30.7 28.915 71.322 44.949 113.493 44.8h55.467c42.172 0.149 82.795-15.885 113.494-44.8 18.057-16.67 32.068-37.248 40.96-60.16v-1.28z" />
<glyph unicode="&#xe926;" glyph-name="ProfileCardFill" d="M53.333 702.251c0 65.758 53.324 119.083 119.083 119.083h680.917c64.819 0 117.333-52.514 117.333-117.333v-554.667c0-64.819-52.514-117.333-117.333-117.333h-682.667c-64.82 0-117.333 52.514-117.333 117.333v552.917zM450.159 437.304c48.32 48.324 48.32 126.666 0 174.987s-126.665 48.321-174.985 0c-48.321-48.321-48.321-126.663 0-174.987 48.321-48.32 126.665-48.32 174.985 0zM512 202.663l-0.085 0.265c5.239-0.691 10.726-0.085 15.987 2.010 16.418 6.545 24.422 25.161 17.877 41.574-7.782 19.524-19.136 37.376-33.502 52.659-31.292 34.496-72.222 53.636-114.742 53.636h-69.002c-36.078 0-71.014-13.781-99.887-39.031-2.493-2.052-4.932-4.186-7.315-6.391-18.316-16.947-32.555-37.739-41.777-60.873-6.544-16.414 1.459-35.029 17.876-41.574 5.26-2.095 10.746-2.701 15.989-2.010l-0.086-0.265h298.668zM640 565.331c-17.673 0-32-14.327-32-32s14.327-32.002 32-32.002h170.667c17.673 0 32 14.329 32 32.002s-14.327 32-32 32h-170.667zM640 394.663c-17.673 0-32-14.323-32-32 0-17.673 14.327-32 32-32h102.4c17.673 0 32 14.327 32 32 0 17.677-14.327 32-32 32h-102.4z" />
<glyph unicode="&#xe927;" glyph-name="SettingsFilter" d="M896 245.334h-138.667v53.333c0 19.802-7.868 38.793-21.871 52.796s-32.994 21.871-52.796 21.871h-85.333c-19.802 0-38.793-7.868-52.796-21.871s-21.871-32.994-21.871-52.796v-53.333h-394.667c-8.487 0-16.626-3.371-22.627-9.374-6.001-5.999-9.373-14.14-9.373-22.626s3.372-16.627 9.373-22.626c6.001-6.003 14.141-9.374 22.627-9.374h394.667v-53.333c0-19.802 7.868-38.793 21.871-52.796s32.994-21.871 52.796-21.871h85.333c19.802 0 38.793 7.868 52.796 21.871s21.871 32.994 21.871 52.796v53.333h138.667c8.486 0 16.627 3.371 22.626 9.374 6.003 5.999 9.374 14.14 9.374 22.626s-3.371 16.627-9.374 22.626c-5.999 6.003-14.14 9.374-22.626 9.374zM693.333 128c0-2.829-1.122-5.542-3.123-7.543s-4.715-3.123-7.543-3.123h-85.333c-2.829 0-5.542 1.122-7.543 3.123s-3.123 4.715-3.123 7.543v170.667c0 2.829 1.122 5.542 3.123 7.543s4.715 3.123 7.543 3.123h85.333c2.829 0 5.542-1.122 7.543-3.123s3.123-4.715 3.123-7.543v-170.667zM128 608h138.667v-53.333c0-19.803 7.866-38.795 21.869-52.796 14.003-14.003 32.995-21.871 52.797-21.871h85.333c19.802 0 38.793 7.868 52.796 21.871 14.003 14.001 21.871 32.993 21.871 52.796v53.333h394.667c8.486 0 16.627 3.372 22.626 9.373 6.003 6.001 9.374 14.141 9.374 22.627s-3.371 16.626-9.374 22.627c-5.999 6.001-14.14 9.373-22.626 9.373h-394.667v53.333c0 19.803-7.868 38.795-21.871 52.797s-32.994 21.869-52.796 21.869h-85.333c-19.803 0-38.795-7.866-52.797-21.869s-21.869-32.995-21.869-52.797v-53.333h-138.667c-8.487 0-16.626-3.372-22.627-9.373s-9.373-14.141-9.373-22.627c0-8.487 3.372-16.626 9.373-22.627s14.141-9.373 22.627-9.373zM330.667 725.334c0 2.829 1.124 5.542 3.124 7.543s4.714 3.124 7.543 3.124h85.333c2.829 0 5.542-1.124 7.543-3.124s3.123-4.714 3.123-7.543v-170.667c0-2.829-1.122-5.542-3.123-7.543s-4.715-3.124-7.543-3.124h-85.333c-2.829 0-5.542 1.124-7.543 3.124s-3.124 4.714-3.124 7.543v170.667z" />
<glyph unicode="&#xe928;" glyph-name="WarningDelete" d="M917.76 334.076c-20.143-88.068-68.407-167.185-137.498-225.395s-155.255-92.343-245.466-97.246-179.563 19.699-254.554 70.080c-74.991 50.381-131.543 123.806-161.107 209.173-29.565 85.372-30.534 178.044-2.763 264.013s82.774 160.561 156.695 212.5c73.92 51.939 162.738 78.403 253.034 75.391 90.291-3.012 177.152-35.337 247.445-92.087 6.558-5.417 10.722-13.193 11.601-21.653s-1.604-16.926-6.908-23.574c-5.265-5.931-12.548-9.694-20.429-10.562-7.885-0.867-15.808 1.224-22.238 5.868-58.948 48.986-132.262 77.42-208.823 80.991-76.565 3.571-152.204-17.915-215.456-61.201s-110.67-106.013-135.064-178.674c-24.395-72.661-24.436-151.291-0.119-223.978s71.667-135.467 134.874-178.82c63.207-43.354 138.826-64.922 215.391-61.431s149.909 31.846 208.909 80.768c59.004 48.926 100.446 115.75 118.050 190.345 2.027 8.201 7.177 15.287 14.349 19.746 7.168 4.463 15.799 5.952 24.051 4.147 4.279-0.708 8.371-2.283 12.028-4.621 3.652-2.342 6.793-5.402 9.225-8.994 2.436-3.588 4.113-7.637 4.937-11.9 0.819-4.262 0.764-8.644-0.162-12.885zM877.653 533.332l42.667 42.667c5.653 6.066 8.73 14.089 8.585 22.38s-3.507 16.2-9.37 22.063c-5.862 5.863-13.773 9.221-22.063 9.367s-16.311-2.931-22.379-8.583l-42.667-42.667-42.667 42.667c-5.999 5.993-14.131 9.359-22.613 9.359-8.478 0-16.614-3.366-22.613-9.359-3.021-2.942-5.419-6.458-7.057-10.342s-2.483-8.056-2.483-12.271c0-4.215 0.845-8.388 2.483-12.272s4.036-7.4 7.057-10.342l42.667-42.667-42.667-42.669c-3.021-2.94-5.419-6.455-7.057-10.338-1.638-3.887-2.483-8.060-2.483-12.275 0-4.211 0.845-8.384 2.483-12.271 1.638-3.883 4.036-7.398 7.057-10.342 5.999-5.99 14.135-9.357 22.613-9.357 8.482 0 16.614 3.366 22.613 9.357l42.667 42.667 42.667-42.667c6.127-5.918 14.31-9.225 22.827-9.225s16.7 3.307 22.827 9.225c5.995 6.003 9.357 14.135 9.357 22.613 0 8.482-3.362 16.614-9.357 22.613l-43.093 42.669zM512 408.743c8.486 0 16.627 3.375 22.626 9.374 6.003 6.003 9.374 14.14 9.374 22.626v139.522c0 8.487-3.371 16.626-9.374 22.627-5.999 6.001-14.14 9.373-22.626 9.373s-16.627-3.372-22.626-9.373c-6.003-6.001-9.374-14.141-9.374-22.627v-139.522c0.111-8.452 3.516-16.525 9.493-22.502s14.054-9.387 22.507-9.498zM473.173 280.743c0.222-10.074 4.352-19.669 11.516-26.756 7.168-7.083 16.806-11.106 26.884-11.217 10.3 0 20.173 4.092 27.456 11.375 7.279 7.279 11.371 17.156 11.371 27.452 0 10.3-4.092 20.177-11.371 27.456-7.283 7.283-17.156 11.371-27.456 11.371h-5.547c-8.239-1.314-15.855-5.197-21.76-11.093-3.703-3.593-6.639-7.91-8.619-12.676-1.98-4.77-2.965-9.89-2.901-15.057l0.427-0.853z" />
<glyph unicode="&#xe929;" glyph-name="Acircle" d="M541.013 600.32c-2.573 5.527-6.669 10.205-11.81 13.482-5.137 3.278-11.106 5.019-17.203 5.019s-12.066-1.741-17.203-5.019c-5.141-3.278-9.237-7.955-11.81-13.482l-112.64-238.080-29.013-60.587c-3.413-7.723-3.722-16.465-0.862-24.41s8.669-14.481 16.222-18.257c3.799-1.86 7.932-2.94 12.155-3.174 4.224-0.23 8.451 0.388 12.43 1.822s7.631 3.648 10.737 6.519c3.106 2.871 5.603 6.336 7.344 10.193l19.627 42.667h186.027l19.627-42.667c1.792-3.81 4.318-7.232 7.433-10.065s6.758-5.026 10.718-6.451c3.964-1.425 8.166-2.061 12.373-1.86s8.333 1.225 12.143 3.017c3.81 1.792 7.228 4.318 10.065 7.433 2.833 3.115 5.026 6.758 6.451 10.718 1.425 3.964 2.057 8.166 1.86 12.373-0.201 4.207-1.225 8.333-3.017 12.143l-141.653 298.666zM449.28 379.734l62.72 132.267 62.72-132.267h-125.44zM512 842.667c-82.278 0-162.706-24.398-231.117-70.109s-121.731-110.681-153.216-186.695c-31.486-76.013-39.724-159.657-23.673-240.352 16.052-80.7 55.672-154.82 113.85-213.001s132.303-97.801 213-113.852c80.695-16.051 164.339-7.812 240.354 23.676 76.011 31.484 140.983 84.804 186.692 153.216 45.713 68.412 70.11 148.838 70.11 231.117 0.055 54.647-10.667 108.766-31.552 159.262s-51.524 96.379-90.167 135.019c-38.639 38.64-84.523 69.28-135.019 90.167s-104.614 31.608-159.262 31.552zM512 74.667c-69.619 0-137.675 20.642-195.561 59.324-57.886 38.677-103.003 93.653-129.645 157.973-26.642 64.316-33.613 135.091-20.031 203.375 13.582 68.281 47.107 131.001 96.335 180.23s111.948 82.753 180.23 96.335c68.279 13.582 139.055 6.611 203.375-20.031s119.296-71.759 157.973-129.645c38.677-57.886 59.324-125.941 59.324-195.561 0-93.355-37.086-182.891-103.1-248.9-66.010-66.014-155.546-103.1-248.9-103.1z" />
<glyph unicode="&#xe92a;" glyph-name="Add" d="M512 853.334c-235.661 0-426.667-191.006-426.667-426.667s191.006-426.667 426.667-426.667 426.667 191.006 426.667 426.667-191.006 426.667-426.667 426.667zM512 634.53c18.125 0 32.819-14.694 32.819-32.821v-142.223h142.225c18.125 0 32.819-14.694 32.819-32.819s-14.694-32.819-32.819-32.819h-142.225v-142.225c0-18.125-14.694-32.819-32.819-32.819s-32.819 14.694-32.819 32.819v142.225h-142.223c-18.127 0-32.821 14.694-32.821 32.819s14.694 32.819 32.821 32.819h142.223v142.223c0 18.127 14.694 32.821 32.819 32.821z" />
<glyph unicode="&#xe92b;" glyph-name="AlarmClock" d="M532.523 657.025c0 18.126-14.694 32.82-32.823 32.82-18.125 0-32.819-14.694-32.819-32.82v-276.92c0-11.558 6.080-22.263 16.009-28.186l215.39-128.482c15.565-9.284 35.712-4.194 45.001 11.375 9.284 15.565 4.194 35.716-11.375 45.001l-199.381 118.933v258.279zM813.7 124.967c166.622 166.626 166.622 436.775 0 603.399-166.626 166.624-436.775 166.624-603.399 0s-166.624-436.773 0-603.399c166.623-166.622 436.773-166.622 603.399 0zM256.716 681.951c140.99 140.989 369.579 140.989 510.567 0 140.975-140.991 140.983-369.583 0-510.567-140.988-140.988-369.578-140.988-510.567 0s-140.989 369.578 0 510.567z" />
<glyph unicode="&#xe92c;" glyph-name="AngleDown" d="M318.706 534.628c12.497 12.497 32.758 12.497 45.255 0l148.039-148.038 148.041 148.038c12.497 12.497 32.755 12.497 45.252 0s12.497-32.756 0-45.254l-170.667-170.667c-12.497-12.497-32.755-12.497-45.252 0l-170.668 170.667c-12.497 12.497-12.497 32.757 0 45.254z" />
<glyph unicode="&#xe92d;" glyph-name="AngleLeft" d="M619.959 619.961c12.497-12.497 12.497-32.758 0-45.255l-148.036-148.039 148.036-148.041c12.497-12.497 12.497-32.755 0-45.252s-32.755-12.497-45.252 0l-170.668 170.667c-12.497 12.497-12.497 32.755 0 45.252l170.668 170.668c12.497 12.497 32.755 12.497 45.252 0z" />
<glyph unicode="&#xe92e;" glyph-name="AngleRight" d="M404.039 619.961c12.497 12.497 32.756 12.497 45.254 0l170.667-170.668c12.497-12.497 12.497-32.755 0-45.252l-170.667-170.667c-12.497-12.497-32.757-12.497-45.254 0s-12.497 32.755 0 45.252l148.038 148.041-148.038 148.039c-12.497 12.497-12.497 32.758 0 45.255z" />
<glyph unicode="&#xe92f;" glyph-name="AngleUp" d="M489.374 534.628c12.497 12.497 32.755 12.497 45.252 0l170.667-170.668c12.497-12.497 12.497-32.755 0-45.252s-32.755-12.497-45.252 0l-148.041 148.036-148.039-148.036c-12.497-12.497-32.758-12.497-45.255 0s-12.497 32.755 0 45.252l170.668 170.668z" />
<glyph unicode="&#xe930;" glyph-name="ArchiveIn" d="M634.684 698.5c-1.749 3.936-2.624 8.31-2.624 12.684s0.875 8.748 2.624 12.684c1.754 3.936 3.938 7.436 7.002 10.497l109.781 109.345c12.685 12.684 33.677 12.684 46.362 0s12.685-33.678 0-46.362l-53.359-53.361h139.524c17.933 0 32.802-14.871 32.802-32.803s-14.869-32.804-32.802-32.804h-139.524l53.359-53.361c12.685-12.684 12.685-33.679 0-46.362-6.558-6.561-14.869-9.623-23.181-9.623s-16.619 3.062-23.181 9.623l-109.346 109.345s-0.435 0.875-0.875 1.312c-2.624 2.624-4.809 5.686-6.123 9.185h-0.439zM938.227 470.187v-262.43c0-114.594-93.158-207.757-207.753-207.757h-437.385c-114.594 0-207.757 93.163-207.757 207.757v437.82c0 114.594 93.163 207.757 207.757 207.757h218.692c17.933 0 32.802-14.871 32.802-32.804s-14.869-32.803-32.802-32.803h-218.692c-78.292 0-142.15-63.858-142.15-142.15v-317.103h158.77c29.305 0 55.548-16.183 68.232-42.423l19.682-39.369c1.75-3.499 5.686-6.123 9.623-6.123h208.194c4.373 0 7.872 2.189 9.621 6.123l19.682 38.929c13.124 26.244 40.239 44.177 68.672 42.428h158.767v142.148c0 17.933 14.874 32.802 32.806 32.802s32.802-14.869 32.802-32.802h0.435zM872.623 262.43h-158.771c-3.938 0-7.872-2.189-9.621-6.123l-19.682-38.929c-13.124-26.24-39.364-42.423-68.672-42.423h-208.192c-29.305 0-55.548 16.183-68.669 42.423l-19.682 39.364c-1.75 3.499-5.686 6.123-9.623 6.123h-158.77v-54.673c0-78.289 63.858-142.148 142.15-142.148h437.82c78.293 0 142.148 63.859 142.148 142.148v54.673l-0.435-0.435z" />
<glyph unicode="&#xe931;" glyph-name="ArrowLeft" d="M449.847 660.552c12.497 12.497 12.497 32.759-0.004 45.255-12.497 12.496-32.757 12.494-45.253-0.004l-252.466-252.508c-4.874-3.593-8.692-8.538-10.903-14.281-4.854-11.618-2.554-25.519 6.9-34.974l256.469-256.512c12.496-12.497 32.756-12.501 45.253-0.004 12.501 12.497 12.501 32.755 0.004 45.252l-202.707 202.743h563.526c17.673 0 32 14.327 32 32s-14.327 32-32 32h-561.815l200.996 201.032z" />
<glyph unicode="&#xe932;" glyph-name="ArrowRight" d="M597.858 705.852c-12.523 12.471-32.785 12.429-45.257-0.094s-12.429-32.784 0.094-45.255l201.818-200.983h-563.367c-17.673 0-32-14.327-32-32s14.327-32 32-32h565.087l-203.537-202.692c-12.523-12.471-12.565-32.734-0.094-45.257s32.734-12.565 45.257-0.094l257.579 256.512c6.029 6.007 9.417 14.165 9.417 22.677 0 8.508-3.388 16.67-9.417 22.673l-257.579 256.512z" />
<glyph unicode="&#xe933;" glyph-name="ArrowsFirst" d="M746.667 608c0 17.673-14.327 32-32 32s-32-14.327-32-32v-362.667c0-17.673 14.327-32 32-32s32 14.327 32 32v362.667zM406.627 619.961c-12.497 12.497-32.758 12.497-45.255 0s-12.497-32.758 0-45.255l148.038-148.039-148.038-148.041c-12.497-12.497-12.497-32.755 0-45.252s32.758-12.497 45.255 0l170.665 170.667c6.003 5.999 9.374 14.14 9.374 22.626s-3.371 16.627-9.374 22.626l-170.665 170.668z" />
<glyph unicode="&#xe934;" glyph-name="ArrowsLast" d="M320 245.334c0-17.673 14.327-32 32-32s32 14.327 32 32v362.667c0 17.673-14.327 32-32 32s-32-14.327-32-32v-362.667zM705.293 574.706c12.497 12.497 12.497 32.758 0 45.255s-32.755 12.497-45.252 0l-170.667-170.668c-12.497-12.497-12.497-32.755 0-45.252l170.667-170.667c12.497-12.497 32.755-12.497 45.252 0s12.497 32.755 0 45.252l-148.036 148.041 148.036 148.039z" />
<glyph unicode="&#xe935;" glyph-name="ArrowTopLeft" d="M599.236 671.999c17.673 0.125 32.102-14.101 32.226-31.773s-14.101-32.1-31.774-32.225l-220.084-1.552 368.355-368.356c12.497-12.497 12.497-32.759 0-45.252-12.497-12.497-32.755-12.497-45.252 0l-368.328 368.325-1.583-220.063c-0.127-17.673-14.557-31.898-32.23-31.77s-31.896 14.558-31.769 32.23l2.133 296.576c0.126 17.495 14.278 31.646 31.773 31.769l296.532 2.091z" />
<glyph unicode="&#xe936;" glyph-name="AssetLibrary" d="M341.333 842.667h-128c-31.119 0-60.963-12.362-82.967-34.366s-34.366-51.848-34.366-82.967v-128c0-31.119 12.362-60.963 34.366-82.967 22.004-22.006 51.848-34.366 82.967-34.366h128c31.119 0 60.963 12.361 82.967 34.366 22.006 22.004 34.366 51.848 34.366 82.967v128c0 31.119-12.361 60.963-34.366 82.967s-51.848 34.366-82.967 34.366zM394.667 597.334c0-14.145-5.619-27.71-15.621-37.712s-23.567-15.621-37.712-15.621h-128c-14.145 0-27.71 5.619-37.712 15.621s-15.621 23.567-15.621 37.712v128c0 14.145 5.619 27.71 15.621 37.712s23.567 15.621 37.712 15.621h128c14.145 0 27.71-5.619 37.712-15.621s15.621-23.567 15.621-37.712v-128zM810.667 842.667h-128c-31.117 0-60.962-12.362-82.965-34.366-22.007-22.004-34.368-51.848-34.368-82.967v-128c0-31.119 12.361-60.963 34.368-82.967 22.003-22.006 51.849-34.366 82.965-34.366h128c31.117 0 60.962 12.361 82.965 34.366 22.007 22.004 34.368 51.848 34.368 82.967v128c0 31.119-12.361 60.963-34.368 82.967-22.003 22.004-51.849 34.366-82.965 34.366zM864 597.334c0-14.145-5.619-27.71-15.62-37.712s-23.569-15.621-37.713-15.621h-128c-14.144 0-27.712 5.619-37.713 15.621s-15.62 23.567-15.62 37.712v128c0 14.145 5.619 27.71 15.62 37.712s23.569 15.621 37.713 15.621h128c14.144 0 27.712-5.619 37.713-15.621s15.62-23.567 15.62-37.712v-128zM341.333 373.334h-128c-31.119 0-60.963-12.361-82.967-34.368-22.004-22.003-34.366-51.849-34.366-82.965v-128c0-31.117 12.362-60.962 34.366-82.965 22.004-22.007 51.848-34.368 82.967-34.368h128c31.119 0 60.963 12.361 82.967 34.368 22.006 22.003 34.366 51.849 34.366 82.965v128c0 31.117-12.361 60.962-34.366 82.965-22.004 22.007-51.848 34.368-82.967 34.368zM394.667 128c0-14.144-5.619-27.712-15.621-37.713s-23.567-15.62-37.712-15.62h-128c-14.145 0-27.71 5.619-37.712 15.62s-15.621 23.569-15.621 37.713v128c0 14.144 5.619 27.712 15.621 37.713s23.567 15.62 37.712 15.62h128c14.145 0 27.71-5.619 37.712-15.62s15.621-23.569 15.621-37.713v-128zM885.333 275.2c-0.111-8.452-3.516-16.529-9.493-22.507s-14.054-9.382-22.507-9.493h-213.333c-8.486 0-16.627 3.371-22.626 9.374-6.003 5.999-9.374 14.14-9.374 22.626s3.371 16.627 9.374 22.626c5.999 6.003 14.14 9.374 22.626 9.374h213.333c8.452-0.111 16.529-3.516 22.507-9.493s9.382-14.054 9.493-22.507zM885.333 108.8c-0.111-8.452-3.516-16.529-9.493-22.507s-14.054-9.382-22.507-9.493h-213.333c-8.486 0-16.627 3.371-22.626 9.374-6.003 5.999-9.374 14.14-9.374 22.626s3.371 16.627 9.374 22.626c5.999 6.003 14.14 9.374 22.626 9.374h213.333c8.452-0.111 16.529-3.516 22.507-9.493s9.382-14.054 9.493-22.507z" />
<glyph unicode="&#xe937;" glyph-name="AtSign" d="M159.839 469.355c0 170.917 138.557 309.473 309.473 309.473h85.372c82.078 0 160.794-32.605 218.833-90.643 58.035-58.038 90.641-136.754 90.641-218.83v-106.714c0-53.047-43.004-96.051-96.051-96.051h-4.271c-52.77 0-95.599 42.551-96.047 95.215v160.9c0 70.715-57.327 128.040-128.043 128.040h-63.471c-33.877 0.005-66.376-13.421-90.371-37.335l-12.844-12.844c-12.497-12.497-12.497-32.758 0-45.255s32.758-12.497 45.255 0l12.768 12.767c11.994 11.946 28.262 18.671 45.193 18.667h63.471c35.371 0 64.043-28.672 64.043-64.040v-54.481h-136.107c-73.335-0.030-132.776-59.499-132.807-132.834 0.031-73.331 59.486-132.774 132.82-132.804h72.051c43.055 0 81.148 21.252 104.358 53.837 29.321-33.024 72.098-53.833 119.731-53.833h4.271c88.393 0 160.051 71.659 160.051 160.051v106.714c0 99.050-39.347 194.045-109.389 264.085-70.037 70.040-165.035 109.388-264.085 109.388h-85.372c-206.263 0-373.473-167.211-373.473-373.473v-85.372c0-206.263 167.211-373.474 373.473-373.474h166.473c17.673 0 32 14.327 32 32s-14.327 32-32 32h-166.473c-170.917 0-309.473 138.556-309.473 309.474v85.372zM603.785 404.224v-41.583c0-0.363 0-0.721 0.004-1.084v-30.933c0-35.366-28.672-64.038-64.043-64.038h-72.051c-37.999 0.021-68.797 30.822-68.82 68.821 0.023 37.999 30.834 68.796 68.833 68.817h136.077z" />
<glyph unicode="&#xe938;" glyph-name="AttachLink" d="M819.627 414.294l-94.293-93.867c-2.637-4.066-6.165-7.484-10.313-9.988-4.151-2.505-8.815-4.032-13.645-4.471s-9.694 0.226-14.225 1.941c-4.535 1.719-8.619 4.442-11.942 7.966-3.328 3.529-5.811 7.765-7.262 12.39s-1.83 9.519-1.109 14.315c0.717 4.791 2.517 9.361 5.257 13.359 2.743 3.998 6.357 7.317 10.573 9.715l93.44 93.44c15.074 15.074 27.029 32.964 35.187 52.659 8.154 19.692 12.352 40.799 12.352 62.114s-4.198 42.422-12.352 62.115c-8.158 19.693-20.113 37.586-35.187 52.659s-32.964 27.028-52.659 35.185c-19.691 8.157-40.798 12.355-62.114 12.355s-42.423-4.198-62.114-12.355c-19.695-8.157-37.585-20.113-52.659-35.185l-95.573-93.44c-2.94-3.019-6.46-5.419-10.342-7.057s-8.055-2.482-12.271-2.482c-4.215 0-8.388 0.844-12.271 2.482s-7.4 4.038-10.342 7.057c-5.863 5.981-9.147 14.024-9.147 22.4s3.284 16.418 9.147 22.4l93.867 93.867c42.436 42.435 99.989 66.274 160 66.274s117.564-23.84 160-66.274c42.436-42.435 66.274-99.988 66.274-160s-23.838-117.564-66.274-160v0.427zM603.307 563.2l-227.84-227.84c-5.652-6.067-8.73-14.089-8.583-22.379s3.505-16.201 9.367-22.063c5.863-5.862 13.773-9.225 22.063-9.37s16.314 2.931 22.38 8.585l227.84 227.84c5.653 6.066 8.73 14.089 8.585 22.38-0.149 8.29-3.507 16.2-9.37 22.063s-13.773 9.221-22.063 9.367c-8.29 0.146-16.311-2.931-22.379-8.583zM573.013 256l-93.44-93.44c-15.074-15.074-32.964-27.029-52.659-35.187-19.692-8.154-40.799-12.352-62.114-12.352-43.048 0-84.334 17.101-114.773 47.539-15.072 15.074-27.028 32.964-35.185 52.659-8.157 19.691-12.355 40.798-12.355 62.114 0 43.046 17.101 84.335 47.54 114.773l93.44 93.44c6.281 5.939 9.943 14.131 10.184 22.775 0.24 8.641-2.963 17.024-8.904 23.305s-14.133 9.943-22.775 10.183c-8.642 0.24-17.024-2.963-23.305-8.903l-93.867-93.44c-42.435-42.436-66.274-99.989-66.274-160s23.84-117.564 66.274-160c42.435-42.436 99.988-66.274 160-66.274s117.564 23.838 160 66.274l93.867 93.867c3.951 2.709 7.241 6.272 9.63 10.423s3.814 8.785 4.177 13.559c0.358 4.779-0.358 9.574-2.099 14.037-1.741 4.459-4.463 8.474-7.962 11.746-3.499 3.268-7.689 5.713-12.258 7.147-4.57 1.438-9.404 1.83-14.144 1.148s-9.267-2.419-13.248-5.082c-3.981-2.667-7.313-6.191-9.749-10.313z" />
<glyph unicode="&#xe939;" glyph-name="AttachmentLink" d="M928 533.334c-0.030-48.068-15.761-94.814-44.8-133.12-2.522-3.362-5.679-6.195-9.297-8.337-3.614-2.138-7.616-3.546-11.776-4.143-4.16-0.593-8.397-0.363-12.467 0.683-4.070 1.041-7.898 2.876-11.26 5.397-6.75 5.231-11.166 12.915-12.284 21.385s1.148 17.037 6.31 23.842c20.544 27.136 31.637 60.258 31.573 94.293 0 42.435-16.858 83.131-46.865 113.137-30.003 30.006-70.699 46.863-113.135 46.863h-234.667c-42.436 0-83.131-16.857-113.137-46.863s-46.863-70.703-46.863-113.137c0-42.436 16.857-83.132 46.863-113.139 30.006-30.003 70.701-46.861 113.137-46.861h119.467c8.486 0 16.627-3.371 22.626-9.374 6.003-5.999 9.374-14.14 9.374-22.626s-3.371-16.627-9.374-22.626c-5.999-6.003-14.14-9.374-22.626-9.374h-119.467c-59.409 0-116.384 23.599-158.392 65.609s-65.608 98.982-65.608 158.391c0 59.409 23.6 116.384 65.608 158.392s98.983 65.608 158.392 65.608h234.667c59.409 0 116.382-23.6 158.391-65.608s65.609-98.983 65.609-158.392zM554.667 544h-119.467c-8.486 0-16.626-3.372-22.627-9.373s-9.373-14.141-9.373-22.627c0-8.486 3.372-16.627 9.373-22.626 6.001-6.003 14.141-9.374 22.627-9.374h119.467c42.436 0 83.132-16.858 113.135-46.861 30.007-30.007 46.865-70.703 46.865-113.139s-16.858-83.132-46.865-113.135c-30.003-30.007-70.699-46.865-113.135-46.865h-234.667c-42.435 0-83.131 16.858-113.137 46.861-30.006 30.007-46.863 70.703-46.863 113.139-0.063 34.035 11.027 67.157 31.573 94.293 5.162 6.805 7.43 15.373 6.311 23.842s-5.533 16.154-12.285 21.385c-6.629 4.446-14.68 6.255-22.574 5.073-7.894-1.186-15.060-5.278-20.093-11.473-28.278-38.575-43.252-85.295-42.667-133.12-0.011-58.675 23.002-115.017 64.092-156.902s96.975-65.98 155.641-67.098h234.667c59.409 0 116.382 23.599 158.391 65.609s65.609 98.982 65.609 158.391c0 59.409-23.599 116.382-65.609 158.391s-98.982 65.609-158.391 65.609z" />
<glyph unicode="&#xe93a;" glyph-name="BankClock" d="M266.667 426.667c-123.733 0-224-100.693-224-224s100.693-224 224-224 224 100.693 224 224-100.693 224-224 224zM266.667 42.667c-88.32 0-160 71.68-160 160s71.68 160 160 160c88.32 0 160-71.68 160-160s-71.68-160-160-160zM348.587 139.947c-5.973-9.813-16.64-15.36-27.307-15.36-5.547 0-11.52 1.707-16.64 4.693l-58.88 35.84c-9.387 5.973-15.36 16.213-15.36 27.307v75.093c0 17.493 14.507 32 32 32s32-14.507 32-32v-57.173l43.52-26.453c14.933-9.387 20.053-29.013 10.667-43.947zM928.427 493.654c17.493 0 32 14.507 32 32v128.427c0 12.8-7.68 24.32-19.2 29.44l-384.427 167.253c-8.107 3.413-17.493 3.413-25.6 0l-384-167.68c-11.52-5.12-19.2-16.64-19.2-29.44v-128.427c0-17.493 14.507-32 32-32h465.067v-280.32h-37.973c-17.493 0-32-14.507-32-32s14.507-32 32-32h279.040l30.293-61.013v-2.987h-309.333c-17.493 0-32-14.507-32-32s14.507-32 32-32h341.333c17.493 0 32 14.507 32 32v42.667c0 5.12-1.28 9.813-3.413 14.507l-42.667 85.333c-5.547 10.667-16.64 17.493-28.587 17.493h-10.667v280.32h53.333v0.427zM192 632.747l352 153.6 352-153.6v-75.52h-704v75.52zM811.093 213.334h-122.027v280.32h122.027v-280.32z" />
<glyph unicode="&#xe93b;" glyph-name="BankFast" d="M938.667 525.227c8.452 0.111 16.529 3.517 22.507 9.495s9.382 14.053 9.493 22.505v128c-0.030 6.234-1.86 12.326-5.265 17.547s-8.243 9.35-13.935 11.893l-384 167.68c-4.058 1.69-8.405 2.56-12.8 2.56s-8.742-0.87-12.8-2.56l-384-167.68c-5.691-2.543-10.529-6.672-13.935-11.893s-5.233-11.313-5.265-17.547v-128c0.111-8.453 3.517-16.528 9.495-22.505s14.053-9.384 22.505-9.495h464.64v-280.32h-37.973c-8.486 0-16.627-3.371-22.626-9.374-6.003-5.999-9.374-14.14-9.374-22.626s3.371-16.627 9.374-22.626c5.999-6.003 14.14-9.374 22.626-9.374h279.040l30.293-61.013v-2.987h-309.333c-8.486 0-16.627-3.371-22.626-9.374-6.003-5.999-9.374-14.14-9.374-22.626s3.371-16.627 9.374-22.626c5.999-6.003 14.14-9.374 22.626-9.374h341.333c8.452 0.111 16.529 3.516 22.507 9.493s9.382 14.054 9.493 22.507v43.093c-0.068 5.026-1.233 9.975-3.413 14.507l-42.667 85.333c-2.718 5.244-6.818 9.643-11.857 12.727-5.039 3.081-10.825 4.727-16.73 4.766h-10.667v279.893h53.333zM821.333 245.334h-121.6v280.32h122.027l-0.427-280.32zM202.667 589.227v75.52l352 153.6 352-153.6v-75.52h-704zM448 298.667h-106.667v109.653c-0.655 11.708-5.212 22.861-12.945 31.676-7.734 8.819-18.197 14.788-29.721 16.964-10.56 2.705-21.673 2.334-32.029-1.067s-19.525-9.694-26.424-18.133l-176.64-226.56c-6.223-7.962-9.813-17.66-10.272-27.75-0.459-10.095 2.237-20.079 7.712-28.57 4.899-7.97 11.823-14.502 20.068-18.923 8.245-4.425 17.515-6.579 26.865-6.251h105.387v-111.36c0.655-11.708 5.213-22.861 12.946-31.68 7.733-8.815 18.197-14.784 29.721-16.96 4.814-0.649 9.693-0.649 14.507 0 8.195 0.222 16.247 2.202 23.608 5.811 7.362 3.605 13.862 8.755 19.058 15.095l177.92 222.72c6.268 8.004 9.916 17.749 10.449 27.9 0.533 10.155-2.069 20.228-7.462 28.847-4.561 8.337-11.2 15.351-19.277 20.361-8.073 5.009-17.31 7.842-26.803 8.226zM279.467 48.214v113.493c-0.111 8.452-3.517 16.529-9.495 22.507s-14.053 9.382-22.505 9.493h-116.053l144.213 184.747v-113.493c0.111-8.452 3.517-16.529 9.495-22.507s14.053-9.382 22.505-9.493h116.054l-144.214-184.747z" />
<glyph unicode="&#xe93c;" glyph-name="BankSignalSquare" d="M672.427 387.414c17.493 0 32 14.507 32 32v75.947c0 12.8-7.68 24.747-20.053 29.44l-170.667 69.973c-7.68 2.987-16.64 2.987-24.32 0l-170.667-69.973c-11.947-5.12-20.053-16.64-20.053-29.44v-75.947c0-17.493 14.507-32 32-32h10.667v-131.413h-10.667c-17.493 0-32-14.507-32-32s14.507-32 32-32h341.76c17.493 0 32 14.507 32 32s-14.507 32-32 32h-10.667v131.413h10.667zM363.093 474.027l138.667 56.747 138.667-56.747v-22.613h-277.76v22.613h0.427zM405.76 387.414h64v-131.413h-64v131.413zM597.76 256h-64v131.413h64v-131.413zM917.76 394.667v-213.333c0-111.787-90.88-202.667-202.667-202.667h-384.427c-135.253 0-245.333 110.080-245.333 245.333v384c0 111.787 90.88 202.667 202.667 202.667h213.333c17.493 0 32-14.507 32-32s-14.507-32-32-32h-213.333c-76.373 0-138.667-62.293-138.667-138.667v-384.427c0-99.84 81.493-181.333 181.333-181.333h384.427c76.373 0 138.667 62.293 138.667 138.667v213.333c0 17.493 14.507 32 32 32s32-14.507 32-32v0.427zM960.427 586.667c0-17.493-14.507-32-32-32s-32 14.507-32 32c0 111.787-90.88 202.667-202.667 202.667-17.493 0-32 14.507-32 32s14.507 32 32 32c147.2 0 266.667-119.467 266.667-266.667zM693.76 661.334c-17.493 0-32 14.507-32 32s14.507 32 32 32c76.373 0 138.667-62.293 138.667-138.667 0-17.493-14.507-32-32-32s-32 14.507-32 32c0 41.387-33.707 74.667-74.667 74.667z" />
<glyph unicode="&#xe93d;" glyph-name="Bill" d="M533.333 650.667c0-17.493-14.507-32-32-32h-170.667c-17.493 0-32 14.507-32 32s14.507 32 32 32h170.667c17.493 0 32-14.507 32-32zM501.333 512h-170.667c-17.493 0-32-14.507-32-32s14.507-32 32-32h170.667c17.493 0 32 14.507 32 32s-14.507 32-32 32zM501.333 341.334h-170.667c-17.493 0-32-14.507-32-32s14.507-32 32-32h170.667c17.493 0 32 14.507 32 32s-14.507 32-32 32zM874.667 778.667v-690.773c0-18.773-9.387-35.413-25.173-45.227s-35.413-10.667-52.053-2.56l-120.747 60.587c-2.987 1.707-6.4 1.707-9.387 0l-142.080-71.253c-7.253-3.84-15.787-5.547-23.893-5.547s-16.64 1.707-23.893 5.547l-142.080 70.827c-2.987 1.707-6.4 1.707-9.387 0l-120.747-60.587c-16.64-8.533-36.267-7.253-52.053 2.133-15.787 9.813-25.173 26.88-25.173 45.227v691.627c0 40.96 33.707 74.667 74.667 74.667h597.333c40.96 0 74.667-33.707 74.667-74.667zM810.667 778.667c0 5.973-4.693 10.667-10.667 10.667h-597.333c-5.973 0-10.667-4.693-10.667-10.667v-673.707l105.387 52.48c10.667 5.12 21.76 7.68 33.28 7.68s23.040-2.56 33.28-7.68l137.387-68.693 137.387 68.693c20.907 10.24 45.653 10.24 66.987 0l105.387-52.48v673.707h-0.427zM672 683.094c-17.493 0-32-14.507-32-32s14.507-32 32-32 32 14.507 32 32-14.507 32-32 32zM672 512.427c-17.493 0-32-14.507-32-32s14.507-32 32-32 32 14.507 32 32-14.507 32-32 32zM672 341.76c-17.493 0-32-14.507-32-32s14.507-32 32-32 32 14.507 32 32-14.507 32-32 32z" />
<glyph unicode="&#xe93e;" glyph-name="BillScan" d="M416 234.667c-0.111-8.452-3.517-16.525-9.495-22.502s-14.053-9.387-22.505-9.498h-32c-25.461 0-49.879 10.116-67.882 28.117-18.004 18.005-28.118 42.423-28.118 67.883v32c0 8.486 3.372 16.627 9.373 22.63 6.001 5.999 14.141 9.37 22.627 9.37s16.626-3.371 22.627-9.37c6.001-6.003 9.373-14.144 9.373-22.63v-32c0-8.486 3.372-16.627 9.373-22.626 6.001-6.003 14.141-9.374 22.627-9.374h32c8.453-0.111 16.528-3.516 22.505-9.493s9.384-14.054 9.495-22.507zM736 362.667c-8.452-0.111-16.529-3.516-22.507-9.493s-9.382-14.054-9.493-22.507v-32c0-8.486-3.371-16.627-9.374-22.626-5.999-6.003-14.14-9.374-22.626-9.374h-32c-8.486 0-16.627-3.371-22.626-9.37-6.003-6.003-9.374-14.144-9.374-22.63s3.371-16.627 9.374-22.626c5.999-6.003 14.14-9.374 22.626-9.374h32c25.459 0 49.877 10.116 67.883 28.117 18.001 18.005 28.117 42.423 28.117 67.883v32c-0.111 8.452-3.516 16.529-9.493 22.507s-14.054 9.382-22.507 9.493zM672 714.668h-32c-8.486 0-16.627-3.372-22.626-9.373-6.003-6.001-9.374-14.141-9.374-22.627s3.371-16.626 9.374-22.627c5.999-6.001 14.14-9.373 22.626-9.373h32c8.486 0 16.627-3.372 22.626-9.373 6.003-6.001 9.374-14.141 9.374-22.627v-32c0-8.487 3.371-16.626 9.374-22.627 5.999-6.001 14.14-9.373 22.626-9.373s16.627 3.371 22.626 9.373c6.003 6.001 9.374 14.14 9.374 22.627v32c0 25.46-10.116 49.879-28.117 67.882-18.005 18.003-42.423 28.118-67.883 28.118zM288 554.668c8.453 0.111 16.528 3.517 22.505 9.495s9.384 14.053 9.495 22.505v32c0 8.487 3.372 16.626 9.373 22.627s14.141 9.373 22.627 9.373h32c8.487 0 16.626 3.371 22.627 9.373s9.373 14.14 9.373 22.627c0 8.487-3.372 16.626-9.373 22.627s-14.141 9.373-22.627 9.373h-32c-25.461 0-49.879-10.115-67.882-28.118s-28.118-42.422-28.118-67.882v-32c0.111-8.453 3.517-16.528 9.495-22.505s14.053-9.384 22.505-9.495zM736 490.667h-448c-8.487 0-16.626-3.371-22.627-9.37-6.001-6.003-9.373-14.144-9.373-22.63s3.372-16.627 9.373-22.626c6.001-6.003 14.141-9.374 22.627-9.374h448c8.486 0 16.627 3.371 22.626 9.374 6.003 5.999 9.374 14.14 9.374 22.626s-3.371 16.627-9.374 22.63c-5.999 5.999-14.14 9.37-22.626 9.37zM928 732.162v-661.335c-0.051-14.255-3.878-28.241-11.093-40.533-7.275-12.463-17.728-22.767-30.293-29.867-12.924-7.667-27.639-11.789-42.667-11.947-14.677-0.926-29.35 1.86-42.667 8.107l-94.293 46.080c-5.918 2.581-12.314 3.891-18.773 3.84-6.554-0.337-12.958-2.082-18.773-5.12l-105.813-60.16c-15.74-8.939-33.527-13.636-51.627-13.636s-35.887 4.698-51.627 13.636l-105.813 61.44c-5.817 3.038-12.22 4.783-18.773 5.12-6.458 0.051-12.854-1.259-18.773-3.84l-97.707-47.36c-13.315-6.246-27.989-9.033-42.667-8.107-13.825 0.602-27.296 4.557-39.253 11.52-12.564 7.1-23.018 17.404-30.293 29.867-7.215 12.292-11.043 26.278-11.093 40.533v661.761c0.116 20.397 4.373 40.558 12.514 59.261s19.996 35.556 34.846 49.539c30.528 28.592 70.813 44.462 112.64 44.373h512c41.596 0.553 81.852-14.695 112.64-42.667 15.061-14.18 27.038-31.311 35.183-50.323 8.149-19.013 12.297-39.5 12.177-60.184zM864 732.162c-0.038 11.7-2.483 23.268-7.181 33.985s-11.546 20.352-20.126 28.308c-18.628 17.4-43.204 27.017-68.693 26.88h-512c-25.489 0.137-50.066-9.48-68.693-26.88-8.579-7.956-15.43-17.592-20.128-28.308s-7.141-22.284-7.179-33.985v-661.335c-0.577-2.671-0.577-5.436 0-8.107 2.637-3.55 6.395-6.106 10.667-7.253 3.418-1.835 7.215-2.859 11.093-2.987 3.826-0.367 7.677 0.375 11.093 2.133l97.707 46.080c15.325 7.215 32.134 10.726 49.067 10.24 16.792-0.657 33.181-5.342 47.787-13.653l105.813-60.16c6.174-3.285 13.060-5.005 20.053-5.005s13.879 1.719 20.053 5.005l106.667 60.16c14.605 8.311 30.993 12.996 47.787 13.653 16.934 0.486 33.741-3.025 49.067-10.24l97.707-46.080c3.418-1.758 7.266-2.5 11.093-2.133 2.705 0.567 5.303 1.579 7.68 2.987 3.017 1.732 5.521 4.237 7.253 7.253 1.301 2.513 2.027 5.282 2.133 8.107l1.28 661.335z" />
<glyph unicode="&#xe93f;" glyph-name="Bot" d="M766.72 810.667h-530.773c-59.733 0-107.947-48.213-107.947-107.947v-455.253c0-59.733 48.213-107.947 107.947-107.947h456.533l135.253-72.107c9.813-5.12 21.76-5.12 31.573 0.853s15.36 16.213 15.36 27.307v607.147c0 59.733-48.213 107.947-107.947 107.947zM554.667 608c0 17.493 14.507 32 32 32s32-14.507 32-32v-42.667c0-17.493-14.507-32-32-32s-32 14.507-32 32v42.667zM384 608c0 17.493 14.507 32 32 32s32-14.507 32-32v-42.667c0-17.493-14.507-32-32-32s-32 14.507-32 32v42.667zM689.493 372.054c-105.387-105.387-276.053-105.387-381.44 0-12.373 12.373-12.373 32.853 0 45.227s32.853 12.373 45.227 0c80.213-80.213 210.773-80.213 290.987 0 12.373 12.373 32.853 12.373 45.227 0s12.373-32.853 0-45.227z" />
<glyph unicode="&#xe940;" glyph-name="Box" d="M896 842.667h-768c-19.803 0-38.795-7.866-52.797-21.869s-21.869-32.995-21.869-52.797v-85.333c0-19.803 7.866-38.795 21.869-52.797s32.995-21.869 52.797-21.869h768c19.802 0 38.793 7.866 52.796 21.869s21.871 32.995 21.871 52.797v85.333c0 19.803-7.868 38.795-21.871 52.797s-32.994 21.869-52.796 21.869zM906.667 682.667c0-2.829-1.122-5.542-3.123-7.543s-4.715-3.124-7.543-3.124h-768c-2.829 0-5.542 1.124-7.543 3.124s-3.124 4.714-3.124 7.543v85.333c0 2.829 1.124 5.542 3.124 7.543s4.714 3.124 7.543 3.124h768c2.829 0 5.542-1.124 7.543-3.124s3.123-4.714 3.123-7.543v-85.333zM384 437.334c-8.487 0-16.626 3.371-22.627 9.374-6.001 5.999-9.373 14.14-9.373 22.626s3.372 16.627 9.373 22.626c6.001 6.003 14.141 9.374 22.627 9.374h256c8.486 0 16.627-3.371 22.626-9.374 6.003-5.999 9.374-14.14 9.374-22.626s-3.371-16.627-9.374-22.626c-5.999-6.003-14.14-9.374-22.626-9.374h-256zM832 608h64v-480c0-31.117-12.361-60.962-34.368-82.965-22.003-22.007-51.849-34.368-82.965-34.368h-532.907c-15.444-0.055-30.748 2.935-45.033 8.811-14.285 5.871-27.27 14.502-38.211 25.404s-19.622 23.855-25.545 38.118c-5.923 14.263-8.972 29.555-8.972 45.001v480h64v-480c0-14.144 5.619-27.712 15.621-37.713s23.567-15.62 37.712-15.62h533.333c14.144 0 27.712 5.619 37.713 15.62s15.62 23.569 15.62 37.713v480z" />
<glyph unicode="&#xe941;" glyph-name="BuildingCityDownTown" d="M335.787 597.334c-0.986-9.213-5.345-17.737-12.237-23.93s-15.831-9.62-25.097-9.62c-9.266 0-18.205 3.427-25.097 9.62s-11.25 14.717-12.237 23.93c-0.561 5.238-0.013 10.535 1.608 15.548s4.278 9.628 7.799 13.546c3.521 3.918 7.828 7.052 12.639 9.196s10.020 3.253 15.288 3.253c5.268 0 10.477-1.108 15.288-3.253s9.117-5.278 12.639-9.196c3.521-3.918 6.178-8.533 7.799-13.546s2.168-10.31 1.608-15.548zM469.333 634.88c-5.239 0.561-10.534 0.013-15.548-1.608s-9.626-4.278-13.547-7.799c-3.917-3.521-7.049-7.828-9.195-12.639s-3.255-10.020-3.255-15.288c0-5.268 1.109-10.477 3.255-15.288s5.278-9.117 9.195-12.639c3.921-3.521 8.533-6.178 13.547-7.799s10.308-2.168 15.548-1.608c9.212 0.986 17.737 5.345 23.932 12.237 6.191 6.892 9.617 15.831 9.617 25.097s-3.426 18.205-9.617 25.097c-6.195 6.892-14.72 11.25-23.932 12.237zM298.667 464.214c-7.444 0.085-14.744-2.044-20.975-6.118s-11.109-9.907-14.016-16.764c-2.907-6.852-3.712-14.413-2.312-21.726 1.4-7.309 4.942-14.042 10.176-19.332 5.233-5.295 11.923-8.913 19.217-10.398s14.866-0.764 21.751 2.065c6.886 2.829 12.775 7.642 16.92 13.824s6.358 13.457 6.359 20.902c0 9.886-3.896 19.371-10.846 26.398-6.95 7.031-16.39 11.038-26.274 11.149zM469.333 464.214c-7.445 0.085-14.746-2.044-20.975-6.118s-11.11-9.907-14.016-16.764c-2.906-6.852-3.712-14.413-2.313-21.726 1.399-7.309 4.941-14.042 10.176-19.332 5.235-5.295 11.921-8.913 19.217-10.398s14.865-0.764 21.751 2.065c6.886 2.829 12.774 7.642 16.922 13.824 4.143 6.182 6.357 13.457 6.357 20.902-0.107 9.852-4.041 19.273-10.965 26.278-6.929 7.006-16.307 11.046-26.155 11.268zM298.667 293.547c-7.462 0.085-14.779-2.057-21.019-6.148-6.239-4.096-11.118-9.954-14.012-16.832s-3.674-14.464-2.239-21.786c1.435-7.322 5.020-14.050 10.296-19.328s12.006-8.862 19.329-10.295c7.323-1.438 14.907-0.657 21.785 2.24 6.878 2.893 12.737 7.77 16.83 14.012 4.093 6.238 6.234 13.555 6.15 21.018-0.112 9.771-4.073 19.102-11.022 25.971s-16.326 10.722-26.098 10.722v0.427zM469.333 293.547c-7.462 0.085-14.78-2.057-21.018-6.148-6.242-4.096-11.119-9.954-14.012-16.832-2.897-6.878-3.678-14.464-2.24-21.786 1.434-7.322 5.018-14.050 10.295-19.328s12.006-8.862 19.328-10.295c7.322-1.438 14.908-0.657 21.786 2.24 6.878 2.893 12.736 7.77 16.832 14.012 4.092 6.238 6.234 13.555 6.148 21.018-0.222 9.737-4.215 19.004-11.14 25.852-6.929 6.848-16.243 10.735-25.98 10.842v0.427zM768 464.214c-7.424 0-14.686-2.202-20.86-6.327s-10.987-9.988-13.828-16.849c-2.842-6.861-3.584-14.413-2.138-21.696 1.451-7.283 5.026-13.973 10.274-19.226 5.252-5.248 11.942-8.823 19.226-10.274 7.283-1.446 14.835-0.704 21.696 2.138s12.723 7.654 16.849 13.828c4.126 6.174 6.327 13.436 6.327 20.86 0 4.932-0.973 9.813-2.859 14.37-1.886 4.553-4.651 8.691-8.137 12.181-3.49 3.486-7.629 6.251-12.181 8.137-4.557 1.886-9.438 2.859-14.37 2.859zM768 293.547c-9.212-0.986-17.737-5.346-23.932-12.237-6.191-6.891-9.617-15.829-9.617-25.097s3.426-18.206 9.617-25.097c6.195-6.891 14.72-11.251 23.932-12.237 5.239-0.559 10.534-0.013 15.548 1.609s9.626 4.275 13.547 7.799c3.917 3.52 7.053 7.825 9.195 12.638 2.146 4.809 3.255 10.018 3.255 15.287s-1.109 10.475-3.255 15.287c-2.142 4.813-5.278 9.118-9.195 12.638-3.921 3.524-8.533 6.178-13.547 7.799s-10.308 2.167-15.548 1.609zM928 554.667v-426.667c0-19.802-7.868-38.793-21.871-52.796s-32.994-21.871-52.796-21.871h-682.667c-19.803 0-38.795 7.868-52.797 21.871s-21.869 32.994-21.869 52.796v597.333c0 19.803 7.866 38.795 21.869 52.797s32.995 21.869 52.797 21.869h426.667c19.802 0 38.793-7.866 52.796-21.869s21.871-32.995 21.871-52.797v-96h181.333c19.802 0 38.793-7.866 52.796-21.869s21.871-32.995 21.871-52.797zM608 725.334c0 2.829-1.122 5.542-3.123 7.543s-4.715 3.124-7.543 3.124h-426.667c-2.829 0-5.542-1.124-7.543-3.124s-3.124-4.714-3.124-7.543v-597.333c0-2.829 1.124-5.542 3.124-7.543s4.714-3.123 7.543-3.123h437.333v608zM864 554.667c0 2.829-1.122 5.542-3.123 7.543s-4.715 3.124-7.543 3.124h-181.333v-448h181.333c2.829 0 5.542 1.122 7.543 3.123s3.123 4.715 3.123 7.543v426.667z" />
<glyph unicode="&#xe942;" glyph-name="BulletList" d="M149.333 714.667c-17.673 0-32-14.327-32-32s14.327-32 32-32h512c17.673 0 32 14.327 32 32s-14.327 32-32 32h-512zM832 714.667c-17.673 0-32-14.327-32-32s14.327-32 32-32h42.667c17.673 0 32 14.327 32 32s-14.327 32-32 32h-42.667zM800 426.667c0 17.673 14.327 32 32 32h42.667c17.673 0 32-14.327 32-32s-14.327-32-32-32h-42.667c-17.673 0-32 14.327-32 32zM832 202.667c-17.673 0-32-14.327-32-32s14.327-32 32-32h42.667c17.673 0 32 14.327 32 32s-14.327 32-32 32h-42.667zM117.333 426.667c0 17.673 14.327 32 32 32h512c17.673 0 32-14.327 32-32s-14.327-32-32-32h-512c-17.673 0-32 14.327-32 32zM149.333 202.667c-17.673 0-32-14.327-32-32s14.327-32 32-32h512c17.673 0 32 14.327 32 32s-14.327 32-32 32h-512z" />
<glyph unicode="&#xe943;" glyph-name="Calendar" d="M351.922 810.828v-32.026h320.155v32.026c0 17.673 14.327 32 32 32s32-14.327 32-32v-32.026h32.081c88.367 0 160-71.634 160-160v-448.293c0-88.367-71.633-160-160-160h-512.32c-88.365 0-160 71.633-160 160v448.293c0 88.366 71.634 160 160 160h32.083v32.026c0 17.673 14.327 32 32 32s32-14.327 32-32zM287.922 714.802h-32.083c-53.019 0-96-42.981-96-96v-53.422h704.319v53.422c0 53.019-42.978 96-96 96h-32.081v-32.027c0-17.673-14.327-32-32-32s-32 14.327-32 32v32.027h-320.155v-32.027c0-17.673-14.327-32-32-32s-32 14.327-32 32v32.027zM159.839 501.381v-330.871c0-53.018 42.98-96 96-96h512.32c53.022 0 96 42.982 96 96v330.871h-704.319z" />
<glyph unicode="&#xe944;" glyph-name="CalendarClock" d="M917.76 332.8v360.533c0 88.32-71.68 160-160 160h-512.427c-88.32 0-160-71.68-160-160v-512.427c0-88.32 71.68-160 160-160h360.533c36.693-26.453 81.493-42.667 130.56-42.667 123.733 0 224 100.693 224 224 0 48.64-16.213 93.867-42.667 130.56zM245.333 789.334h512.427c52.907 0 96-43.093 96-96v-53.333h-704.427v53.333c0 52.907 43.093 96 96 96zM149.333 180.907v395.093h704.427v-183.467c-34.133 21.333-74.24 34.133-117.333 34.133-123.733 0-224-100.693-224-224 0-43.093 12.8-83.2 34.133-117.333h-301.227c-52.907 0-96 43.093-96 96v-0.427zM736.427 42.24c-88.32 0-160 71.68-160 160s71.68 160 160 160c88.32 0 160-71.68 160-160s-71.68-160-160-160zM818.347 139.52c-5.973-9.813-16.64-15.36-27.307-15.36-5.547 0-11.52 1.707-16.64 4.693l-58.88 35.84c-9.387 5.973-15.36 16.213-15.36 27.307v75.093c0 17.493 14.507 32 32 32s32-14.507 32-32v-57.173l43.52-26.453c14.933-9.387 20.053-29.013 10.667-43.947zM542.293 458.667c0 17.493 16.213 34.133 34.133 34.133s34.133-16.64 34.133-34.133c0-17.493-16.213-34.133-34.133-34.133s-34.133 16.213-34.133 34.133zM392.96 458.667c0 8.107 3.84 17.493 9.387 23.467 5.973 6.4 15.36 10.24 23.893 10.667h0.853c12.8 0 26.453-8.96 31.573-20.907 5.12-12.373 1.707-28.587-7.68-37.547-6.4-5.973-15.36-9.387-24.32-9.387-4.267 0-8.533 0.853-12.373 2.56-11.947 5.12-20.907 18.347-20.907 31.573l-0.427-0.427zM243.627 458.667c0 8.96 4.267 18.773 10.667 24.747 2.987 2.987 7.253 5.547 11.52 6.827 2.56 0.853 5.12 1.707 7.68 2.133 8.96 1.28 17.067-1.28 23.467-5.973 5.547-3.84 9.813-8.96 12.373-14.507 5.12-11.947 2.133-27.733-6.827-37.12-6.4-6.4-15.787-10.24-25.173-10.24-3.84 0-8.107 0.853-11.52 2.133-12.373 4.693-21.333 18.773-21.333 31.573l-0.853 0.427zM392.96 330.667c0 8.107 3.413 17.067 8.96 23.040 5.547 6.4 14.933 10.667 23.893 11.093h1.707c12.8 0 26.453-8.96 31.573-20.907s1.707-28.16-7.253-37.547c-6.4-6.4-15.787-9.813-24.747-9.813-4.267 0-8.533 0.853-12.373 2.56-11.947 5.12-20.907 18.347-20.907 31.573h-0.853zM243.627 330.667c0 8.533 3.84 18.347 9.813 24.32 3.413 3.413 8.107 5.973 12.8 7.68 2.56 0.853 5.547 1.707 8.533 1.707h5.12c6.4-0.427 11.947-2.56 16.64-5.973 5.547-3.84 9.813-8.96 12.373-14.507 4.693-11.52 2.133-27.307-6.4-36.693-6.4-6.827-16.213-10.667-25.6-10.667-4.267 0-8.533 0.853-12.373 2.56-11.947 5.12-20.907 18.347-20.907 31.573zM458.667 215.894c5.12-12.373 1.707-29.013-8.107-37.973-5.973-5.973-15.36-8.96-23.893-8.96-4.267 0-8.533 0.853-12.373 2.56-11.947 5.12-20.907 18.347-20.907 31.573 0 8.533 3.84 17.92 9.813 23.893 5.547 5.547 14.507 9.387 22.613 9.813h1.707c12.8 0 26.453-8.96 31.573-20.907h-0.427zM309.333 215.894c5.12-11.947 1.707-28.16-7.253-37.547-6.4-6.4-15.787-9.813-24.747-9.813-4.267 0-8.533 0.853-12.373 2.56-11.947 5.12-20.907 18.347-20.907 31.573 0 8.107 3.413 17.067 8.96 23.040 3.413 3.413 7.68 6.4 12.373 8.533 3.413 1.707 7.253 2.56 11.093 2.56h4.267c5.973-0.427 11.52-2.56 15.787-5.547 5.547-3.84 10.667-8.96 13.227-14.933l-0.427-0.427z" />
</font>
</defs>
</svg>
