<svg width="80" height="80" viewBox="0 0 80 80" fill="none" xmlns="http://www.w3.org/2000/svg">
<path d="M37.2321 13.943C37.8439 12.4244 39.3252 11.4286 40.9724 11.4286H66.8247C69.6747 11.4286 71.6235 14.2867 70.565 16.9141L50.7679 66.057C50.1561 67.5756 48.6748 68.5714 47.0276 68.5714H21.1753C18.3253 68.5714 16.3765 65.7133 17.435 63.0859L37.2321 13.943Z" fill="url(#paint0_linear_9979_513808)"/>
<path d="M26.2857 45.7143C35.7535 45.7143 43.4286 38.0392 43.4286 28.5714C43.4286 19.1037 35.7535 11.4286 26.2857 11.4286C16.818 11.4286 9.14285 19.1037 9.14285 28.5714C9.14285 38.0392 16.818 45.7143 26.2857 45.7143Z" fill="#0A33FF"/>
<path d="M43.4286 28.5714C43.4286 38.0392 35.7535 45.7143 26.2857 45.7143C25.6729 45.7143 25.0675 45.6821 24.4713 45.6194L36.7954 15.027C40.8316 18.1634 43.4286 23.0641 43.4286 28.5714Z" fill="url(#paint1_linear_9979_513808)"/>
<defs>
<linearGradient id="paint0_linear_9979_513808" x1="54.6491" y1="11.4286" x2="34.4472" y2="68.6409" gradientUnits="userSpaceOnUse">
<stop stop-color="#FFD60A"/>
<stop offset="1" stop-color="#F0BA09"/>
</linearGradient>
<linearGradient id="paint1_linear_9979_513808" x1="36.6705" y1="15.0481" x2="24.4268" y2="45.5647" gradientUnits="userSpaceOnUse">
<stop stop-color="#051A80"/>
<stop offset="1" stop-color="#0A33FF"/>
</linearGradient>
</defs>
</svg>